<svg width="41" height="42" viewBox="0 0 41 42" fill="none" xmlns="http://www.w3.org/2000/svg">
<path fill-rule="evenodd" clip-rule="evenodd" d="M30.271 8.56086C30.5327 8.76435 30.7029 9.06347 30.7441 9.39243C30.7852 9.72138 30.694 10.0532 30.4905 10.3149L12.2752 33.7099C12.1743 33.8393 12.0488 33.9477 11.906 34.0286C11.7632 34.1096 11.6059 34.1617 11.443 34.1818C11.2801 34.202 11.1148 34.1899 10.9566 34.1462C10.7983 34.1025 10.6503 34.028 10.5208 33.9271C10.3914 33.8262 10.2831 33.7007 10.2021 33.5579C10.1211 33.4152 10.069 33.2578 10.0489 33.0949C10.0287 32.932 10.0408 32.7667 10.0845 32.6085C10.1282 32.4503 10.2027 32.3022 10.3036 32.1727L28.5179 8.77909C28.7216 8.51787 29.0206 8.34816 29.3493 8.30725C29.678 8.26633 30.0095 8.35754 30.271 8.56086Z" fill="#2E448D"/>
<path fill-rule="evenodd" clip-rule="evenodd" d="M31.9373 26.8643C31.6087 26.9056 31.277 26.8147 31.0153 26.6116C30.7536 26.4085 30.5833 26.1099 30.5416 25.7812L28.6354 10.6652L13.5158 12.5433C13.1899 12.5782 12.8633 12.4837 12.6064 12.2802C12.3495 12.0766 12.1828 11.7803 12.1423 11.4551C12.1017 11.1298 12.1906 10.8017 12.3896 10.5413C12.5887 10.2809 12.882 10.1091 13.2065 10.0629L29.5656 8.02959C29.8944 7.98865 30.2259 8.07987 30.4874 8.28319C30.7489 8.48652 30.919 8.78533 30.9603 9.11399L33.0217 25.4696C33.0627 25.7983 32.9715 26.1299 32.7681 26.3914C32.5648 26.6529 32.266 26.823 31.9373 26.8643Z" fill="#2E448D"/>
</svg>
