<svg width="16" height="18" viewBox="0 0 16 18" fill="none" xmlns="http://www.w3.org/2000/svg">
<path fill-rule="evenodd" clip-rule="evenodd" d="M8 17.7441C7.81766 17.7441 7.6428 17.6717 7.51386 17.5428C7.38493 17.4138 7.3125 17.239 7.3125 17.0566L7.3235 0.749142C7.32362 0.658859 7.34152 0.569481 7.37618 0.486116C7.41085 0.40275 7.46159 0.32703 7.52551 0.263275C7.58944 0.19952 7.66529 0.148979 7.74875 0.11454C7.83221 0.080101 7.92163 0.062439 8.01192 0.0625591C8.1022 0.0626793 8.19158 0.0805798 8.27494 0.115242C8.35831 0.149902 8.43403 0.200645 8.49778 0.26457C8.56154 0.328497 8.61208 0.404352 8.64652 0.48781C8.68096 0.571268 8.69862 0.66069 8.6985 0.750975L8.6875 17.0576C8.68726 17.2397 8.61472 17.4144 8.48581 17.5431C8.35691 17.6718 8.18218 17.7441 8 17.7441Z" fill="#2E448D"/>
<path fill-rule="evenodd" clip-rule="evenodd" d="M1.0995 10.3591C1.22828 10.2302 1.40295 10.1578 1.58514 10.1576C1.76733 10.1574 1.94214 10.2296 2.07117 10.3582L8.002 16.278L13.9328 10.3582C14.0626 10.233 14.2363 10.1638 14.4165 10.1655C14.5968 10.1671 14.7692 10.2395 14.8966 10.367C15.024 10.4945 15.0962 10.667 15.0977 10.8473C15.0992 11.0275 15.0298 11.2012 14.9045 11.3308L8.48783 17.7364C8.35893 17.8652 8.18419 17.9375 8.002 17.9375C7.81981 17.9375 7.64507 17.8652 7.51617 17.7364L1.0995 11.3308C0.970753 11.2019 0.898438 11.0271 0.898438 10.8449C0.898438 10.6628 0.970753 10.488 1.0995 10.3591Z" fill="#2E448D"/>
</svg>
