<svg width="37" height="52" viewBox="0 0 37 52" fill="none" xmlns="http://www.w3.org/2000/svg">
<path d="M16.3501 13.5575C17.3001 11.85 17.7751 11 18.4851 11C19.1951 11 19.6701 11.85 20.6201 13.5575L20.8651 13.9975C21.1351 14.4825 21.2701 14.7225 21.4801 14.8826C21.6926 15.0426 21.9551 15.1026 22.4801 15.2201L22.9551 15.3301C24.8001 15.7476 25.7226 15.9551 25.9426 16.6601C26.1626 17.3651 25.5326 18.1026 24.2751 19.5726L23.9501 19.9526C23.5926 20.3701 23.4126 20.5776 23.3326 20.8376C23.2526 21.0976 23.2801 21.3751 23.3326 21.9326L23.3826 22.4402C23.5726 24.4027 23.6676 25.3852 23.0951 25.8202C22.5201 26.2552 21.6551 25.8577 19.9276 25.0627L19.4826 24.8577C18.9901 24.6327 18.7451 24.5202 18.4851 24.5202C18.2251 24.5202 17.9801 24.6327 17.4876 24.8577L17.0426 25.0627C15.3151 25.8602 14.4501 26.2552 13.8751 25.8202C13.3001 25.3852 13.3976 24.4027 13.5876 22.4402L13.6376 21.9326C13.6901 21.3751 13.7176 21.0976 13.6376 20.8376C13.5576 20.5776 13.3776 20.3701 13.0201 19.9526L12.6951 19.5726C11.4376 18.1026 10.8076 17.3676 11.0276 16.6601C11.2476 15.9551 12.1701 15.7476 14.0151 15.3301L14.4901 15.2201C15.0151 15.1026 15.2776 15.0451 15.4901 14.8826C15.7001 14.7225 15.8351 14.4825 16.1051 13.9975L16.3501 13.5575Z" stroke="#566064" stroke-width="1.5"/>
<path d="M36 18.5002C36 20.7984 35.5474 23.0741 34.6679 25.1973C33.7884 27.3205 32.4994 29.2497 30.8744 30.8748C29.2493 32.4998 27.3202 33.7889 25.197 34.6683C23.0738 35.5478 20.7981 36.0005 18.5 36.0005C16.2019 36.0005 13.9262 35.5478 11.803 34.6683C9.67984 33.7889 7.75066 32.4998 6.12563 30.8748C4.50061 29.2497 3.21157 27.3205 2.33211 25.1973C1.45265 23.0741 1 20.7984 1 18.5002C1 13.8589 2.84374 9.40763 6.12563 6.1257C9.40752 2.84377 13.8587 1 18.5 1C23.1413 1 27.5925 2.84377 30.8744 6.1257C34.1563 9.40763 36 13.8589 36 18.5002Z" stroke="#566064" stroke-width="1.5"/>
<path d="M6.90058 33.499L5.30808 39.3066C3.73808 45.0367 2.95308 47.9017 4.00058 49.4692C4.36808 50.0192 4.86058 50.4592 5.43308 50.7517C7.06308 51.5818 9.58308 50.2692 14.6206 47.6442C16.2956 46.7692 17.1356 46.3342 18.0256 46.2392C18.3564 46.2061 18.6897 46.2061 19.0206 46.2392C19.9106 46.3342 20.7481 46.7717 22.4256 47.6442C27.4631 50.2692 29.9831 51.5818 31.6131 50.7517C32.1856 50.4592 32.6781 50.0192 33.0456 49.4692C34.0956 47.9017 33.3081 45.0367 31.7381 39.3066L30.1456 33.499" stroke="#566064" stroke-width="1.5" stroke-linecap="round"/>
</svg>
