<svg width="15" height="15" viewBox="0 0 15 15" fill="none" xmlns="http://www.w3.org/2000/svg">
<path d="M0.412177 6.88692L6.72343 0.575671C6.98638 0.314861 7.34183 0.16865 7.71219 0.168946H12.6209C12.9929 0.168946 13.3496 0.316709 13.6127 0.579728C13.8757 0.842748 14.0234 1.19948 14.0234 1.57145V6.4802C14.0236 6.66526 13.9871 6.84853 13.9161 7.01943C13.8451 7.19034 13.741 7.3455 13.6097 7.47597L7.29845 13.7872C7.03549 14.048 6.68005 14.1942 6.30969 14.1939C5.93832 14.1924 5.58274 14.0436 5.32093 13.7802L0.412177 8.87146C0.148796 8.60964 5.72205e-06 8.25406 -0.00156021 7.88269C-0.00170708 7.69763 0.0347748 7.51436 0.105784 7.34346C0.176793 7.17255 0.280926 7.01739 0.412177 6.88692ZM6.30969 12.7914L12.6209 6.4802V1.57145H7.71219L1.40094 7.88269M10.8678 2.2727C10.6598 2.2727 10.4564 2.33439 10.2834 2.44997C10.1104 2.56555 9.97562 2.72983 9.89601 2.92204C9.81639 3.11424 9.79556 3.32574 9.83615 3.52978C9.87674 3.73382 9.97692 3.92125 10.124 4.06836C10.2711 4.21547 10.4586 4.31565 10.6626 4.35623C10.8666 4.39682 11.0781 4.37599 11.2703 4.29638C11.4626 4.21676 11.6268 4.08194 11.7424 3.90896C11.858 3.73598 11.9197 3.53261 11.9197 3.32457C11.9197 3.0456 11.8089 2.77805 11.6116 2.58078C11.4143 2.38352 11.1468 2.2727 10.8678 2.2727Z" fill="#2E448D"/>
</svg>
