<svg fill="#000000" width="64px" height="64px" viewBox="0 -0.14 100.091 100.091" xmlns="http://www.w3.org/2000/svg"><g id="SVGRepo_bgCarrier" stroke-width="0"></g><g id="SVGRepo_tracerCarrier" stroke-linecap="round" stroke-linejoin="round"></g><g id="SVGRepo_iconCarrier"> <path id="_people-structure01" data-name=" people-structure01" d="M486.238,663.487c-1.3-.07-2.579-.338-3.875-.441-1.5-.121-3.008-.141-4.511-.236-1.3-.083-1.912-.6-1.937-1.831a37.4,37.4,0,0,1,.194-7.211c.34-1.977.415-4,1.322-5.836a14.266,14.266,0,0,1,1.321-2.348,4.15,4.15,0,0,1,1.6-1.308,24.811,24.811,0,0,1,3.447-1.045.859.859,0,0,1,.975.526c1.031,2.057,2.057,4.117,3.126,6.156.069.135.663.19.706.112a13.953,13.953,0,0,0,1-2.16c.246-.722-.211-1.345-.474-1.994-.288-.709.025-1.15.8-1.157.7,0,1.4.043,2.1.1a.68.68,0,0,1,.448.929,2.144,2.144,0,0,1-.309.512c-1.031,1.061-.855,2.141-.121,3.275a16.98,16.98,0,0,1,.815,1.6c.826-.133.955-.923,1.334-1.458.753-1.066,1.426-2.189,2.168-3.263a8.214,8.214,0,0,1,1.155-1.374,1.051,1.051,0,0,1,1.394-.08,26.957,26.957,0,0,1,3.6,3.172,6.784,6.784,0,0,1,1.471,4.2c.09,3.011.055,6.03.046,9.045a3.771,3.771,0,0,1-.25,1.164,1.325,1.325,0,0,1-1.269,1.078c-.5.01-1,.065-1.506.067-2.411.006-4.823,0-7.235,0,0,.025,0,.052,0,.076C491.26,663.673,488.746,663.625,486.238,663.487Zm-60.468-.935a4.756,4.756,0,0,0-1.183-.205c-3.3-.215-6.6-.532-9.9-.582-3.017-.047-6-.4-8.984-.7-1.465-.147-1.613-.353-1.7-1.9a33.466,33.466,0,0,1,.887-9.238,12.131,12.131,0,0,1,1.627-3.859,4.7,4.7,0,0,1,2.8-2.125c.673-.19,1.345-.394,2.02-.581a1.135,1.135,0,0,1,1.485.625c.895,1.793,1.759,3.6,2.682,5.379a5.024,5.024,0,0,0,.941,1.135.559.559,0,0,0,.473-.055,24.164,24.164,0,0,0,.776-3.191c.059-.423-.308-.914-.513-1.361-.448-.976-.182-1.477.9-1.534a18.577,18.577,0,0,1,2.1.053c.33.02.653.612.55.938a1.611,1.611,0,0,1-.2.56c-1.407,1.627-.683,3.151.208,4.668a.549.549,0,0,0,.98.018c1.005-1.5,1.974-3.02,3-4.5,1.1-1.6,1.98-1.768,3.48-.608a9.47,9.47,0,0,1,3.978,7.111c.1,1.7.017,3.409.017,5.115h.018c0,1.5.009,3.01-.005,4.513a.707.707,0,0,1-.764.74c-.745,0-1.493.033-2.239.033A10.9,10.9,0,0,1,425.769,662.552Zm43.1-18.779a13.288,13.288,0,0,1-1.5-.991,20.918,20.918,0,0,0-4.322-2.709,5.608,5.608,0,0,1-1.535-.923,11.614,11.614,0,0,0-3.728-1.911,3.38,3.38,0,0,0-3.66.428,12.137,12.137,0,0,1-4.415,1.828,26.126,26.126,0,0,0-4.792,1.728,29,29,0,0,1-3.942,1.46,16.921,16.921,0,0,1-1.757.367c-1.81.4-2.83-.742-3.692-2a2.65,2.65,0,0,1,.883-3.422,7.744,7.744,0,0,0,1.5-.963,7.16,7.16,0,0,1,2.853-1.594q5.345-2,10.653-4.1a1.272,1.272,0,0,0,.685-.842,36.152,36.152,0,0,0-.259-12.533,7.3,7.3,0,0,1,.125-4.147,2.7,2.7,0,0,1,.566-1.034c1.385-1.33,4.635-.9,5.593.726a5.423,5.423,0,0,1,.76,2.871c-.022,2.21-.007,4.418-.007,6.628h-.117c0,2.107-.008,4.216,0,6.323.007,1.275.151,1.519,1.434,1.932a79.234,79.234,0,0,1,8.347,3.4,20.436,20.436,0,0,1,4.857,3.492,1.788,1.788,0,0,1,.565,1.02c.363,2.962-1.759,4.837-4.251,5.2a.723.723,0,0,1-.1.007A1.644,1.644,0,0,1,468.87,643.773Zm21.92-.958a4.721,4.721,0,0,1-3.044-1.154,10.559,10.559,0,0,1-2.825-3.864,15.355,15.355,0,0,1-.7-1.99,1.915,1.915,0,0,0-1.076-1.337c-1.571-.8-1.51-2.25-1.256-3.67a2.018,2.018,0,0,1,.855-1.178,3.372,3.372,0,0,0,1.493-2.455,10.54,10.54,0,0,1,2.114-4.292,4.667,4.667,0,0,1,4.185-2.145c2.755.034,4.349,1.173,5.152,3.617a8.515,8.515,0,0,1,.495,2.342,3.4,3.4,0,0,0,1.17,2.6,3.3,3.3,0,0,1-.065,4.584,4.212,4.212,0,0,0-1.58,3.1,9.691,9.691,0,0,1-1.543,4.208,3.628,3.628,0,0,1-3.229,1.64Zm.855-17.523a5.132,5.132,0,0,0-.774,4.293,17.283,17.283,0,0,1,.536,3.213c0,1.056.729,2.032.721,3.147a.44.44,0,0,0,.15.24c.173-.076.414-.134.487-.275.812-1.589.506-3.319.526-5v-3.3a4.219,4.219,0,0,0-.694-2.263.575.575,0,0,0-.488-.294A.593.593,0,0,0,491.646,625.292ZM416.2,641.866a8.85,8.85,0,0,1-2.973-3.736,20.763,20.763,0,0,1-.845-2.258,1.933,1.933,0,0,0-1.031-1.371c-1.595-.76-1.591-2.217-1.329-3.635a2.516,2.516,0,0,1,1.052-1.39,2.708,2.708,0,0,0,1.235-1.948,10.367,10.367,0,0,1,2.339-4.832c1.067-1.287,2.383-2.167,3.893-1.966,2.846.017,4.481,1.145,5.273,3.553a9.938,9.938,0,0,1,.522,2.64,3.165,3.165,0,0,0,1.116,2.313,3.3,3.3,0,0,1-.2,4.781,3.756,3.756,0,0,0-1.332,2.59,12.966,12.966,0,0,1-1.107,3.738,4.023,4.023,0,0,1-3.75,2.471A4.969,4.969,0,0,1,416.2,641.866Zm4.154-13.8c-.17.465-.462.886-.626,1.351a1.019,1.019,0,0,0,0,.808c.658.77.342,1.451-.028,2.2a7.144,7.144,0,0,0-.374,1.358c1.02.6.186,1.4.238,2.111a3.794,3.794,0,0,0,.2,1.165,4.691,4.691,0,0,0,.685.923,3.58,3.58,0,0,0,.491-.716,4.552,4.552,0,0,0,.381-1.425c.063-2.786.116-5.572.077-8.357a6.456,6.456,0,0,0-.6-1.958c-.045-.125-.252-.206-.4-.27-.033-.014-.152.119-.2.2a2.567,2.567,0,0,0-.588,1.874C420.021,627.406,420.653,627.267,420.356,628.067Zm-.986-.6c-.047.027-.057.115-.084.176l.169-.21A.315.315,0,0,0,419.369,627.462Zm21.01-22.705a34.783,34.783,0,0,1-.165-4.809,28.58,28.58,0,0,1,1.082-7.412,23.352,23.352,0,0,1,1.332-3.015,4.4,4.4,0,0,1,2.974-2.355c.1-.025.194-.058.293-.078a8.24,8.24,0,0,1,2.6-.537c1.086.131.828,1.453,1.311,2.176.663,1,1.205,2.078,1.8,3.123.433.759.506,1.776,1.513,2.125.249-.754.517-1.5.743-2.268a2.39,2.39,0,0,0-.107-1.756,4.685,4.685,0,0,1-.393-1.418.758.758,0,0,1,.627-.887,25.927,25.927,0,0,1,2.974.136c.327.03.54.661.383.993a1.4,1.4,0,0,0-.133.268c-.189.78-1.244,1.194-1.042,2.068a18.28,18.28,0,0,0,1.044,2.8.513.513,0,0,0,.48.092,2.655,2.655,0,0,0,.594-.656c.786-1.164,1.547-2.346,2.336-3.509a14.2,14.2,0,0,1,1.1-1.427,1.237,1.237,0,0,1,1.642-.2,29.022,29.022,0,0,1,3.555,3.223,6.812,6.812,0,0,1,1.459,4.2c.085,3.01.041,6.021.017,9.033,0,.727-.353.99-1.193.992-3.013.013-6.025.006-9.037.006v.094c-2.812,0-5.623-.045-8.434.014-2.6.052-5.2.234-7.807.324q-.1,0-.194,0C440.778,606.1,440.464,605.8,440.379,604.757ZM452.4,585.091a8.943,8.943,0,0,1-2.959-3.748,19.679,19.679,0,0,1-.838-2.26,1.953,1.953,0,0,0-1.054-1.356c-1.589-.777-1.567-2.237-1.289-3.65a2.481,2.481,0,0,1,1.066-1.379,2.659,2.659,0,0,0,1.213-1.96,10.812,10.812,0,0,1,2.168-4.59,4.673,4.673,0,0,1,4.216-2.175c2.717.024,4.323,1.157,5.129,3.584a8.641,8.641,0,0,1,.5,2.342,3.451,3.451,0,0,0,1.142,2.609,3.284,3.284,0,0,1-.244,4.772,3.753,3.753,0,0,0-1.312,2.6,12.746,12.746,0,0,1-1.119,3.732,4.008,4.008,0,0,1-3.736,2.442A4.964,4.964,0,0,1,452.4,585.091Zm3.643-16.586a4.853,4.853,0,0,0-.8,4.281c.487,2.112.666,4.278,1.241,6.365.03.1.262.167.409.2.065.013.2-.086.227-.16a5.98,5.98,0,0,0,.456-1.4c.118-1.193.145-2.4.21-3.6h-.12v-3.3a4.252,4.252,0,0,0-.678-2.271.628.628,0,0,0-.522-.333A.542.542,0,0,0,456.046,568.5Z" transform="translate(-403.954 -563.955)"></path> </g></svg>