<svg width="61" height="63" viewBox="0 0 61 63" fill="none" xmlns="http://www.w3.org/2000/svg">
<path d="M0.859375 57.9008C0.892941 57.5067 0.946086 57.1125 0.955876 56.7169C1.092 51.5856 1.2244 46.4544 1.35307 41.3231C1.36006 41.0837 1.36845 40.8444 1.38104 40.6064C1.43978 39.3766 1.76285 39.0584 2.96282 39.09C5.70961 39.1616 8.4564 39.24 11.2032 39.325C12.0507 39.3494 12.4465 39.7708 12.4507 40.6337C12.4507 41.1855 12.4507 41.7359 12.4507 42.3149C13.3052 41.9853 14.1038 41.6183 14.9332 41.3661C18.7764 40.2008 22.4854 40.5878 26.0238 42.5127C27.4949 43.3428 29.1418 43.7915 30.8209 43.8199C32.9845 43.8457 35.1467 44.0077 37.3075 43.9819C40.3843 43.946 42.8136 45.0454 44.4402 47.8447C44.6639 47.7415 44.8737 47.6497 45.0807 47.5508C47.8261 46.2222 50.5617 44.872 53.3183 43.5691C54.5456 42.9753 55.9417 42.859 57.2465 43.2419C58.5513 43.6247 59.6758 44.4807 60.4104 45.6503C60.9475 46.5103 60.8468 47.0649 60.0188 47.6139C53.5295 51.921 47.0555 56.2539 40.534 60.5137C38.8151 61.6346 36.804 61.9571 34.7817 62.109C32.4558 62.2839 30.2713 61.6317 28.0769 60.9896C24.5805 59.9648 21.0687 58.983 17.5751 57.9452C16.259 57.554 15.0465 57.6586 13.8731 58.3853C13.3894 58.6846 12.8898 58.9559 12.3766 59.198C12.0409 59.3556 11.9486 59.5778 11.943 59.939C11.9207 61.1874 11.5668 61.5242 10.3347 61.4927C7.60747 61.421 4.88026 61.3279 2.15305 61.2677C1.87931 61.2743 1.60988 61.1969 1.37936 61.0455C1.14885 60.894 0.967766 60.6754 0.859375 60.4177L0.859375 57.9008ZM57.9643 46.248C56.9406 45.2446 55.5322 45.0225 54.1882 45.666C51.9855 46.7209 49.7897 47.7945 47.5912 48.8595L45.18 50.0319C45.2136 50.3186 45.2472 50.5594 45.2681 50.7973C45.3968 52.1661 44.973 52.6491 43.65 52.6133C40.4939 52.5302 37.3382 52.4418 34.1831 52.3481C33.1118 52.318 32.0391 52.3023 30.9664 52.2507C30.0979 52.2105 29.5678 51.4437 29.8811 50.6826C30.116 50.1007 30.5888 49.9559 31.1678 49.9731C34.888 50.083 38.6086 50.1853 42.3297 50.2799C42.5129 50.2799 42.6948 50.2799 42.9353 50.2799C42.8584 50.0047 42.8164 49.814 42.7521 49.6291C42.064 47.6368 40.32 46.3669 38.1368 46.2981C35.9942 46.2293 33.8516 46.1949 31.7034 46.1276C30.8083 46.1003 29.9104 46.0573 29.021 45.9642C27.2979 45.7821 25.8224 44.8992 24.2784 44.1883C20.3442 42.378 16.4898 42.6202 12.75 44.8304C12.6121 44.8952 12.4964 45.0008 12.4176 45.1337C12.3388 45.2665 12.3007 45.4205 12.3081 45.5757C12.2339 49.0902 12.136 52.599 12.0465 56.1178C12.0465 56.3041 12.0465 56.4904 12.0465 56.7656C12.3486 56.6108 12.5612 56.5191 12.757 56.3987C14.4996 55.3352 16.3233 55.1746 18.2646 55.7609C21.0617 56.608 23.8742 57.4106 26.6881 58.1975C28.6573 58.7479 30.6153 59.4101 32.6237 59.7168C35.2418 60.1167 37.7816 59.6409 40.0641 58.1258C45.0691 54.8053 50.0741 51.4877 55.0791 48.1729C56.0385 47.5365 56.9965 46.8944 57.9643 46.248ZM3.59078 41.3947C3.43414 47.3 3.2789 53.1178 3.12226 58.9887L9.7291 59.1808C9.88853 53.2827 10.0466 47.4634 10.2046 41.5897L3.59078 41.3947Z" fill="white"/>
<path d="M43.6991 39.5727C42.5075 39.4638 41.5425 39.8106 40.5998 40.3567C38.2796 41.7026 35.9188 41.7198 33.5958 40.3711C32.6506 39.8108 31.5743 39.525 30.4826 39.544C27.768 39.5684 25.6757 38.3974 24.3135 35.9607C23.8304 35.0895 23.1102 34.3813 22.2408 33.9226C19.7835 32.5781 18.5276 30.4826 18.6045 27.6002C18.641 26.6937 18.4037 25.7977 17.9248 25.0346C16.3696 22.5492 16.3542 20.0538 17.9039 17.5598C18.396 16.762 18.6398 15.8298 18.6031 14.8867C18.5444 12.0803 19.7598 10.0134 22.1499 8.69765C23.0844 8.19324 23.8599 7.4273 24.3862 6.48891C25.7079 4.17554 27.7274 3.01885 30.3259 3.02172C31.5133 3.03485 32.6829 2.72578 33.7161 2.12589C35.9664 0.84451 38.2698 0.86601 40.5103 2.15743C41.5094 2.73926 42.6424 3.03621 43.7914 3.01742C46.4375 3.01742 48.4808 4.1827 49.815 6.54767C50.32 7.45088 51.0683 8.18586 51.9702 8.66468C54.3827 9.99337 55.6065 12.0774 55.5673 14.8982C55.5446 15.8795 55.8075 16.8455 56.3225 17.6731C57.7785 20.0739 57.7715 22.4947 56.3142 24.8927C55.8016 25.7221 55.5416 26.6891 55.5673 27.6705C55.6065 30.464 54.3939 32.5437 52.0052 33.8638C51.1241 34.3526 50.3898 34.9632 49.8975 35.8704C48.5213 38.3974 46.3745 39.544 43.6991 39.5727ZM31.0238 37.2593C32.1427 37.2206 33.4014 37.6134 34.5944 38.3343C36.2251 39.3262 37.888 39.3448 39.5243 38.3558C40.7663 37.5911 42.1979 37.2118 43.6459 37.2636C45.5648 37.321 47.0277 36.4868 47.9647 34.7439C48.6161 33.5269 49.6164 32.5443 50.8304 31.9288C52.5646 31.0201 53.4121 29.571 53.3478 27.5687C53.2901 26.2419 53.6436 24.9304 54.3576 23.822C55.4442 22.1164 55.4415 20.4308 54.3506 18.7266C53.6409 17.6367 53.2887 16.3433 53.345 15.0343C53.4233 12.979 52.5464 11.5155 50.7688 10.5911C49.5744 9.97964 48.5924 9.00632 47.9563 7.80326C47.0179 6.05748 45.5522 5.23619 43.6319 5.29496C42.184 5.34585 40.7529 4.96387 39.5131 4.1956C37.8964 3.22095 36.2475 3.22525 34.6349 4.20277C33.3932 4.96945 31.9607 5.34943 30.512 5.29639C28.5903 5.24192 27.1344 6.07611 26.1946 7.82046C25.5588 9.02337 24.5754 9.99518 23.3793 10.6025C21.6101 11.5084 20.7653 12.9589 20.8325 14.9942C20.8895 16.3023 20.5399 17.5951 19.8339 18.6864C18.708 20.4279 18.715 22.145 19.8339 23.8851C20.5294 24.9368 20.8752 26.1905 20.8199 27.4598C20.7262 29.6097 21.6394 31.0803 23.4869 32.0234C24.5998 32.5841 25.5148 33.4857 26.1051 34.6034C27.1246 36.4939 28.6672 37.374 31.0238 37.2593Z" fill="white"/>
<path d="M44.8081 10.5512C44.7329 10.773 44.6393 10.9878 44.5284 11.1933C40.1938 18.3178 35.8554 25.4405 31.5133 32.5612C31.0938 33.2506 30.449 33.4441 29.8854 33.0829C29.3218 32.7217 29.2071 32.0509 29.6309 31.3543C33.9646 24.2298 38.3001 17.1062 42.6376 9.98358C43.0026 9.38446 43.4571 9.18236 44.0026 9.34719C44.4683 9.48335 44.7997 9.93055 44.8081 10.5512Z" fill="white"/>
<path d="M47.9961 27.4397C47.9644 28.2034 47.7845 28.953 47.4671 29.6448C47.1496 30.3365 46.701 30.9566 46.1472 31.4687C44.3668 33.1572 41.7879 33.1471 40.0089 31.4601C37.7278 29.2973 37.532 25.3255 39.5893 22.9348C41.6872 20.4981 45.0829 20.7002 46.9136 23.3648C47.6325 24.4183 48.0059 25.6781 47.9961 27.4397ZM45.778 27.0212C45.7654 25.9605 45.4801 25.0145 44.7333 24.2491C43.7543 23.2601 42.4284 23.263 41.4466 24.2348C40.0481 25.6237 40.0383 28.3183 41.4341 29.7101C42.4466 30.7134 43.834 30.6933 44.8032 29.637C45.4773 28.9031 45.75 28.0087 45.778 27.0212Z" fill="white"/>
<path d="M35.978 15.265C35.978 17.0939 35.5361 18.4498 34.5724 19.605C32.6886 21.8654 29.6089 21.9127 27.6551 19.7211C25.6622 17.488 25.644 13.7485 27.6146 11.491C29.6998 9.10027 33.083 9.3253 34.8969 11.9798C35.634 13.0577 35.9878 14.2631 35.978 15.265ZM33.7403 15.5803C33.7744 14.6321 33.4542 13.7063 32.8452 12.9917C31.8662 11.8451 30.3865 11.8207 29.3488 12.9086C28.0369 14.2903 28.0383 16.8789 29.3488 18.2577C30.3684 19.3284 31.8145 19.3169 32.8005 18.2119C33.4746 17.4708 33.7529 16.5764 33.7473 15.5803H33.7403Z" fill="white"/>
</svg>
