<svg width="50" height="50" viewBox="0 0 50 50" fill="none" xmlns="http://www.w3.org/2000/svg">
<path d="M0 46.3941C0.0279714 46.0736 0.0722594 45.753 0.0804177 45.4314C0.193857 41.259 0.304189 37.0866 0.411412 32.9142C0.41724 32.7196 0.424233 32.5249 0.434722 32.3314C0.483672 31.3315 0.752896 31.0727 1.75287 31.0984C4.04186 31.1566 6.33085 31.2204 8.61985 31.2895C9.32612 31.3093 9.65595 31.652 9.65945 32.3536C9.65945 32.8023 9.65945 33.2498 9.65945 33.7207C10.3716 33.4526 11.037 33.1543 11.7282 32.9491C14.9309 32.0016 18.0217 32.3163 20.9704 33.8815C22.1963 34.5564 23.5687 34.9213 24.968 34.9444C26.7709 34.9654 28.5728 35.0971 30.3734 35.0761C32.9375 35.047 34.9619 35.9409 36.3173 38.2171C36.5038 38.1332 36.6786 38.0586 36.8511 37.9782C39.139 36.8978 41.4186 35.7999 43.7158 34.7405C44.7385 34.2576 45.902 34.1631 46.9893 34.4744C48.0766 34.7857 49.0137 35.4818 49.6259 36.4328C50.0734 37.132 49.9895 37.5831 49.2996 38.0294C43.8918 41.5317 38.4968 45.0549 33.0622 48.5187C31.6298 49.4301 29.9538 49.6923 28.2686 49.8159C26.3304 49.9581 24.5099 49.4278 22.6813 48.9057C19.7676 48.0723 16.8411 47.274 13.9297 46.4302C12.833 46.112 11.8226 46.1971 10.8447 46.788C10.4417 47.0314 10.0254 47.252 9.59768 47.4488C9.31796 47.577 9.24104 47.7577 9.23638 48.0514C9.21773 49.0665 8.92287 49.3404 7.89609 49.3147C5.62341 49.2565 3.35074 49.1807 1.07806 49.1318C0.849945 49.1371 0.625421 49.0742 0.433324 48.9511C0.241227 48.8279 0.0903262 48.6502 0 48.4406L0 46.3941ZM47.5875 36.9188C46.7343 36.1029 45.5607 35.9223 44.4407 36.4456C42.6051 37.3034 40.7753 38.1763 38.9432 39.0422L36.9339 39.9956C36.9618 40.2287 36.9898 40.4245 37.0073 40.618C37.1145 41.731 36.7614 42.1238 35.6588 42.0946C33.0288 42.027 30.3991 41.9552 27.7698 41.879C26.877 41.8545 25.9831 41.8417 25.0892 41.7998C24.3654 41.7671 23.9237 41.1436 24.1848 40.5247C24.3806 40.0515 24.7745 39.9338 25.257 39.9478C28.3572 40.0372 31.4577 40.1203 34.5586 40.1972C34.7113 40.1972 34.8628 40.1972 35.0633 40.1972C34.9992 39.9735 34.9642 39.8184 34.9106 39.6681C34.3372 38.0481 32.8839 37.0155 31.0645 36.9595C29.279 36.9036 27.4935 36.8756 25.7034 36.8209C24.9575 36.7987 24.2092 36.7637 23.468 36.688C22.0321 36.54 20.8025 35.822 19.5159 35.244C16.2374 33.772 13.0253 33.9689 9.90886 35.7661C9.79397 35.8188 9.69749 35.9047 9.63185 36.0127C9.56621 36.1207 9.53442 36.2459 9.54057 36.3721C9.4788 39.2299 9.39722 42.083 9.32263 44.9442C9.32263 45.0957 9.32263 45.2472 9.32263 45.471C9.57437 45.3451 9.75152 45.2705 9.91469 45.1726C11.3669 44.3079 12.8866 44.1773 14.5043 44.654C16.8353 45.3428 19.179 45.9955 21.524 46.6353C23.165 47.0829 24.7966 47.6213 26.4702 47.8707C28.652 48.1959 30.7685 47.8089 32.6706 46.577C36.8414 43.877 41.0123 41.1793 45.1831 38.484C45.9826 37.9665 46.781 37.4444 47.5875 36.9188ZM2.27617 32.9725C2.14564 37.7742 2.01627 42.5049 1.88574 47.2787L7.39144 47.4348C7.5243 42.6389 7.656 37.9071 7.7877 33.131L2.27617 32.9725Z" fill="#566064"/>
<path d="M35.6997 31.4915C34.7068 31.4029 33.9026 31.6849 33.1171 32.129C31.1835 33.2234 29.2162 33.2373 27.2804 32.1406C26.4927 31.6851 25.5958 31.4526 24.686 31.4681C22.4238 31.488 20.6803 30.5358 19.5451 28.5545C19.1425 27.846 18.5423 27.2701 17.8179 26.8972C15.7701 25.8039 14.7235 24.1 14.7876 21.7562C14.8181 21.0191 14.6203 20.2906 14.2212 19.67C12.9252 17.6491 12.9124 15.62 14.2037 13.5921C14.6138 12.9434 14.8171 12.1854 14.7865 11.4185C14.7375 9.1365 15.7503 7.45588 17.7421 6.38598C18.5208 5.97583 19.1671 5.35302 19.6057 4.58998C20.7071 2.70891 22.39 1.76837 24.5555 1.7707C25.545 1.78138 26.5196 1.53007 27.3806 1.04228C29.2558 0.000346929 31.1754 0.017829 33.0425 1.06792C33.875 1.54103 34.8192 1.78249 35.7767 1.76721C37.9817 1.76721 39.6845 2.71474 40.7964 4.63777C41.2172 5.37219 41.8407 5.96983 42.5924 6.35917C44.6028 7.43957 45.6226 9.13417 45.59 11.4278C45.571 12.2257 45.7901 13.0112 46.2193 13.6842C47.4326 15.6363 47.4267 17.6048 46.2123 19.5547C45.7852 20.2291 45.5685 21.0154 45.59 21.8134C45.6226 24.0849 44.6121 25.776 42.6215 26.8494C41.8872 27.2468 41.2754 27.7433 40.8651 28.481C39.7183 30.5358 37.9293 31.4681 35.6997 31.4915ZM25.137 29.6104C26.0694 29.5789 27.1184 29.8983 28.1125 30.4845C29.4714 31.291 30.8572 31.3061 32.2208 30.502C33.2558 29.8802 34.4488 29.5717 35.6555 29.6139C37.2545 29.6605 38.4736 28.9822 39.2544 27.565C39.7972 26.5754 40.6308 25.7764 41.6425 25.276C43.0877 24.5371 43.794 23.3588 43.7403 21.7306C43.6923 20.6517 43.9868 19.5853 44.5818 18.6841C45.4874 17.2971 45.4851 15.9265 44.576 14.5408C43.9846 13.6546 43.6911 12.6029 43.738 11.5385C43.8033 9.86725 43.0725 8.6773 41.5912 7.92557C40.5958 7.4284 39.7775 6.63697 39.2474 5.65872C38.4654 4.23918 37.244 3.57136 35.6438 3.61914C34.4372 3.66052 33.2446 3.34993 32.2115 2.72522C30.8642 1.9327 29.4901 1.9362 28.1463 2.73105C27.1115 3.35447 25.9178 3.66344 24.7105 3.62031C23.1091 3.57602 21.8959 4.25433 21.1127 5.67271C20.5829 6.65083 19.7633 7.44104 18.7666 7.93489C17.2922 8.67147 16.5883 9.85093 16.6442 11.5059C16.6918 12.5695 16.4004 13.6208 15.8121 14.5082C14.8739 15.9242 14.8797 17.3205 15.8121 18.7353C16.3917 19.5905 16.6798 20.61 16.6337 21.642C16.5557 23.3902 17.3167 24.586 18.8563 25.3529C19.7837 25.8088 20.5462 26.542 21.0381 27.4508C21.8877 28.988 23.1732 29.7036 25.137 29.6104Z" fill="#566064"/>
<path d="M36.6266 7.89302C36.5639 8.07338 36.4859 8.24806 36.3935 8.41515C32.7813 14.2083 29.166 20 25.5476 25.79C25.1979 26.3506 24.6607 26.508 24.191 26.2143C23.7213 25.9206 23.6257 25.3751 23.9789 24.8087C27.5903 19.0155 31.2032 13.2231 34.8178 7.43149C35.1219 6.94433 35.5007 6.77999 35.9553 6.91402C36.3434 7.02474 36.6196 7.38837 36.6266 7.89302Z" fill="#566064"/>
<path d="M39.2871 21.6249C39.2607 22.2459 39.1108 22.8554 38.8463 23.4179C38.5817 23.9804 38.2078 24.4846 37.7464 24.901C36.2627 26.274 34.1136 26.2658 32.6311 24.8941C30.7302 23.1354 30.5671 19.9058 32.2815 17.9618C34.0297 15.9805 36.8595 16.1448 38.3851 18.3115C38.9841 19.1681 39.2953 20.1925 39.2871 21.6249ZM37.4387 21.2846C37.4282 20.4221 37.1905 19.6529 36.5681 19.0306C35.7523 18.2264 34.6474 18.2287 33.8292 19.0189C32.6638 20.1482 32.6556 22.3393 33.8187 23.471C34.6625 24.2868 35.8187 24.2705 36.6264 23.4116C37.1881 22.8148 37.4154 22.0876 37.4387 21.2846Z" fill="#566064"/>
<path d="M29.2694 11.7257C29.2694 13.2128 28.9011 14.3154 28.0981 15.2547C26.5282 17.0927 23.9619 17.1311 22.3337 15.3491C20.6729 13.5333 20.6577 10.4926 22.2999 8.65697C24.0376 6.71296 26.8569 6.89594 28.3685 9.0544C28.9827 9.93084 29.2776 10.911 29.2694 11.7257ZM27.4047 11.9821C27.4331 11.2111 27.1663 10.4583 26.6588 9.87723C25.8429 8.94485 24.6099 8.92503 23.7451 9.80963C22.6519 10.9331 22.653 13.038 23.7451 14.1592C24.5947 15.0298 25.7998 15.0205 26.6215 14.1219C27.1832 13.5193 27.4152 12.7921 27.4105 11.9821H27.4047Z" fill="#566064"/>
</svg>
