<svg width="48" height="48" viewBox="0 0 48 48" fill="none" xmlns="http://www.w3.org/2000/svg">
<g clip-path="url(#clip0_2493_474)">
<path d="M26.8292 0.668945C27.0139 0.898633 27.246 1.10523 27.3749 1.36408C27.7589 2.13579 28.0894 2.93422 28.4686 3.70592C28.5185 3.7883 28.5848 3.85951 28.6634 3.91513C28.742 3.97074 28.8313 4.00957 28.9256 4.02919C29.8407 4.16287 30.7667 4.22849 31.6782 4.38405C31.9593 4.45128 32.2031 4.62572 32.3575 4.87016C32.5289 5.16547 32.3648 5.4778 32.1023 5.71235C31.4254 6.31999 30.7655 6.94585 30.0837 7.55228C29.9934 7.61642 29.9259 7.70766 29.8909 7.81276C29.856 7.91786 29.8554 8.03137 29.8893 8.13683C30.091 9.00575 30.2453 9.88561 30.4301 10.7594C30.5042 11.113 30.4848 11.4314 30.1712 11.6575C29.8577 11.8835 29.5478 11.8057 29.2342 11.6271C28.4455 11.175 27.6544 10.7229 26.8511 10.2988C26.7693 10.2627 26.681 10.2441 26.5916 10.2441C26.5023 10.2441 26.4139 10.2627 26.3322 10.2988C25.5289 10.7242 24.7389 11.1762 23.949 11.6283C23.6367 11.807 23.3243 11.8799 23.0132 11.6538C22.7021 11.4278 22.6839 11.1057 22.758 10.7545C22.9427 9.88075 23.0959 8.99967 23.3 8.13075C23.3632 7.86096 23.2867 7.71513 23.1019 7.54863C22.4457 6.96287 21.8065 6.35766 21.1502 5.7719C20.867 5.51912 20.6896 5.24082 20.8136 4.85558C20.9375 4.47033 21.2474 4.38526 21.5986 4.34516C22.4882 4.24672 23.379 4.15558 24.2637 4.02554C24.3599 4.00826 24.4513 3.971 24.5321 3.91615C24.6129 3.8613 24.6813 3.79009 24.7328 3.70714C25.1181 2.93544 25.4474 2.13579 25.8327 1.36408C25.9615 1.10645 26.1973 0.901063 26.3795 0.671376L26.8292 0.668945ZM24.4898 9.662C25.0658 9.33752 25.5592 9.07867 26.0308 8.78578C26.4257 8.54273 26.783 8.54273 27.1768 8.78578C27.6446 9.07381 28.1356 9.32537 28.7032 9.63648C28.6011 9.10054 28.5634 8.66426 28.4273 8.24863C28.1903 7.54256 28.3726 7.03335 28.9681 6.59464C29.3205 6.337 29.6207 6.00644 30.0205 5.63822C29.3181 5.55193 28.7506 5.46686 28.1806 5.41825C27.9984 5.41206 27.8224 5.35063 27.6759 5.24211C27.5294 5.13359 27.4193 4.98311 27.3603 4.81061C27.1306 4.27467 26.8742 3.75089 26.5971 3.15662C26.3176 3.76426 26.0648 4.2929 25.8278 4.83249C25.769 4.99695 25.6626 5.14021 25.5221 5.24407C25.3817 5.34794 25.2136 5.40772 25.0391 5.41582C24.4558 5.46808 23.8761 5.55436 23.187 5.63943C23.6901 6.10367 24.1131 6.50592 24.5481 6.89481C24.6867 7.00267 24.79 7.14951 24.8445 7.31647C24.8991 7.48342 24.9025 7.66288 24.8544 7.83179C24.717 8.40054 24.6223 8.97901 24.4898 9.662Z" fill="#566064"/>
<path d="M16.9602 28.8201C18.2734 28.1491 19.4413 27.2257 20.397 26.1027C22.0134 24.1972 22.9102 21.955 23.253 19.5196C23.4863 17.8607 23.5349 16.1715 23.5969 14.4944C23.6443 13.2184 24.2337 12.629 25.5109 12.7614C25.9034 12.7991 26.2925 12.8657 26.6752 12.9607C28.8153 13.5112 29.9844 14.9562 30.101 17.1632C30.2457 19.8769 30.2809 22.5869 29.858 25.2824C29.8587 25.3399 29.8664 25.397 29.8811 25.4526C30.897 25.3991 31.9082 25.331 32.9193 25.2934C34.6498 25.2314 36.3804 25.1281 38.1097 25.1536C39.6702 25.1829 41.1818 25.7029 42.43 26.6399C43.638 27.5246 44.0293 28.8079 43.5299 30.2274C43.3257 30.8059 42.9964 31.343 42.6937 31.8826C42.5856 32.077 42.5576 32.1986 42.6852 32.4027C43.7401 34.0944 43.4144 36.0279 41.8491 37.2724C41.6401 37.4401 41.6547 37.5774 41.6778 37.8059C41.7446 38.4937 41.8406 39.1925 41.7835 39.8718C41.6984 40.9 41.1285 41.6814 40.2304 42.1967C39.9873 42.3328 39.8962 42.4531 39.9241 42.7533C39.9904 43.6137 39.7934 44.4739 39.3593 45.2197C38.9252 45.9655 38.2745 46.5617 37.4936 46.929C37.2867 47.0199 37.0633 47.0674 36.8373 47.0687C31.3548 47.1311 25.8723 47.1862 20.3898 47.234C20.1185 47.2317 19.8494 47.1861 19.5925 47.0991C18.7163 46.8135 17.8474 46.5036 16.9736 46.201C16.7585 47.0189 16.626 47.1185 15.7948 47.1185H5.36406C4.48299 47.1185 4.28125 46.9229 4.28125 46.0564C4.28125 40.3713 4.28125 34.6862 4.28125 29.0012C4.28125 28.1201 4.4684 27.9329 5.34705 27.9329H15.92C16.6333 27.9378 16.7986 28.0739 16.9602 28.8201ZM25.0783 14.1383C25.0783 14.4106 25.0783 14.5892 25.0783 14.7666C25.0941 17.6651 24.8158 20.521 23.7293 23.2395C22.4521 26.4345 20.3545 28.8833 17.1547 30.31C17.0871 30.3553 17.0307 30.4154 16.9899 30.4857C16.949 30.5561 16.9248 30.6348 16.9189 30.7159C16.9068 35.2489 16.9116 39.7807 16.9019 44.3137C16.9019 44.5835 17.0113 44.6783 17.2398 44.7573C18.003 45.0088 18.7528 45.3041 19.5233 45.5265C20.0106 45.677 20.5166 45.7588 21.0266 45.7696C26.0991 45.7368 31.1717 45.6639 36.2443 45.6395C36.9661 45.6395 37.4595 45.3467 37.8679 44.8229C38.1417 44.4861 38.3324 44.0896 38.4245 43.6654C38.5165 43.2413 38.5074 42.8014 38.3977 42.3814C38.2179 41.6085 38.3066 41.4432 39.0576 41.1527C39.9849 40.7882 40.4321 40.1975 40.3944 39.2083C40.3504 38.6362 40.2511 38.0696 40.0979 37.5166C39.9411 36.8713 40.0165 36.6453 40.6023 36.3415C41.9707 35.6305 42.2562 33.9777 41.2038 32.8621C40.7384 32.3687 40.759 32.1244 41.1358 31.5508C41.5367 30.9668 41.8817 30.3463 42.1663 29.6975C42.4604 28.9817 42.2429 28.3182 41.6146 27.8394C40.6596 27.0963 39.4972 26.6687 38.2884 26.6156C36.5627 26.5548 34.8285 26.6678 33.0991 26.7371C31.749 26.7906 30.4012 26.8975 29.051 26.9595C28.4349 26.9887 28.1335 26.6047 28.2453 25.997C28.2927 25.7442 28.3486 25.4927 28.3899 25.2387C28.842 22.514 28.808 19.7699 28.633 17.0319C28.5431 15.6416 27.8309 14.797 26.4953 14.4142C26.0542 14.2927 25.5997 14.2392 25.0783 14.1383ZM15.4217 45.6347V29.4326H5.76389V45.6347H15.4217Z" fill="#566064"/>
<path d="M32.5733 14.217C32.7581 13.3079 32.9318 12.3357 33.1506 11.3805C33.1833 11.275 33.1818 11.1618 33.1462 11.0572C33.1106 10.9526 33.0428 10.862 32.9525 10.7984C32.2853 10.2017 31.6351 9.5831 30.9692 8.98761C30.6957 8.74456 30.5487 8.46747 30.6653 8.10411C30.782 7.74074 31.0968 7.62772 31.448 7.59004C32.323 7.49647 33.1968 7.38709 34.073 7.30567C34.192 7.30458 34.3077 7.2661 34.4037 7.19565C34.4996 7.12521 34.571 7.02638 34.6077 6.91313C34.9565 6.1074 35.3369 5.31504 35.7015 4.51539C35.8461 4.19456 36.0308 3.9357 36.4306 3.92598C36.8499 3.91747 37.0468 4.18119 37.1999 4.52025C37.5645 5.33449 37.9291 6.15115 38.3252 6.95081C38.3747 7.03519 38.4413 7.10837 38.5205 7.16569C38.5998 7.22301 38.6902 7.26323 38.7858 7.28379C39.656 7.40532 40.5322 7.49525 41.4084 7.5864C41.773 7.62407 42.1072 7.71643 42.2324 8.11018C42.3575 8.50393 42.1704 8.77372 41.8884 9.02529C41.2334 9.61105 40.5954 10.2187 39.9379 10.8032C39.848 10.8682 39.7811 10.9601 39.747 11.0657C39.7129 11.1712 39.7134 11.2849 39.7483 11.3902C39.9476 12.2604 40.1008 13.1414 40.2879 14.014C40.3645 14.3701 40.3341 14.6848 40.0242 14.9097C39.7143 15.1345 39.4032 15.0531 39.0896 14.8732C38.3143 14.426 37.5256 14.0043 36.7551 13.5498C36.6647 13.4862 36.5566 13.4527 36.446 13.4538C36.3355 13.4548 36.2281 13.4905 36.139 13.5558C35.3401 14.0225 34.5344 14.4766 33.7218 14.9182C33.1348 15.2329 32.5563 14.8975 32.5733 14.217ZM33.023 8.88431C33.5237 9.34612 33.9393 9.73501 34.3683 10.1215C34.6673 10.3864 34.79 10.6817 34.6928 11.0937C34.5579 11.6624 34.4643 12.2421 34.3367 12.8996C34.914 12.5788 35.4219 12.3138 35.9105 12.0185C36.0677 11.9117 36.2533 11.8545 36.4434 11.8545C36.6334 11.8545 36.8191 11.9117 36.9763 12.0185C37.4624 12.3114 37.9728 12.58 38.5561 12.9032C38.4346 12.2616 38.3495 11.6965 38.2086 11.1472C38.0955 10.7036 38.2268 10.39 38.5561 10.1032C38.9839 9.73136 39.3922 9.3364 39.8662 8.89768C39.2343 8.82112 38.6971 8.72633 38.1575 8.69838C37.6508 8.67164 37.3518 8.43831 37.1646 7.98258C36.9568 7.47459 36.7101 6.98119 36.4488 6.41244C36.1669 7.02008 35.9141 7.55602 35.6784 8.09438C35.6133 8.26485 35.4991 8.41219 35.3503 8.51775C35.2014 8.62332 35.0246 8.68237 34.8422 8.68744C34.2662 8.72754 33.6975 8.8114 33.023 8.88431Z" fill="#566064"/>
<path d="M12.8847 14.2204C13.0719 13.2871 13.2785 12.3246 13.4462 11.356C13.4556 11.2607 13.445 11.1644 13.415 11.0734C13.3851 10.9823 13.3365 10.8986 13.2724 10.8274C12.6198 10.193 11.9453 9.58049 11.2672 8.97285C10.9901 8.7298 10.8613 8.44056 10.984 8.08448C11.1068 7.72841 11.3997 7.62997 11.7363 7.59837C12.6113 7.50237 13.4851 7.39177 14.3613 7.314C14.4878 7.31297 14.6108 7.27249 14.7132 7.1982C14.8156 7.12392 14.8923 7.01952 14.9325 6.89959C15.2788 6.09386 15.6616 5.3015 16.0202 4.50063C16.1672 4.17493 16.3641 3.93066 16.759 3.93066C17.154 3.93066 17.3509 4.17372 17.4979 4.50306C17.8625 5.3173 18.2271 6.13518 18.6245 6.93362C18.6766 7.02327 18.7467 7.10118 18.8303 7.16245C18.914 7.22373 19.0094 7.26705 19.1106 7.28969C19.9953 7.41851 20.8873 7.50115 21.7781 7.59837C22.1136 7.63483 22.4089 7.74421 22.528 8.09177C22.6471 8.43934 22.517 8.73587 22.2436 8.98257C21.5679 9.59021 20.891 10.1979 20.2384 10.8347C20.1757 10.9066 20.1285 10.9906 20.0996 11.0816C20.0708 11.1725 20.0609 11.2684 20.0707 11.3633C20.2214 12.2432 20.4049 13.1182 20.5896 13.9919C20.6637 14.3419 20.6577 14.6628 20.3465 14.8985C20.0196 15.1477 19.6988 15.0541 19.3743 14.8657C18.599 14.4197 17.8115 13.9956 17.0398 13.5423C16.9558 13.4815 16.8548 13.4488 16.7511 13.4488C16.6475 13.4488 16.5465 13.4815 16.4625 13.5423C15.6519 14.0163 14.834 14.4817 14.0064 14.9265C13.4292 15.2376 12.8531 14.8767 12.8847 14.2204ZM18.8651 12.8946C18.7436 12.2541 18.6549 11.6914 18.5175 11.1409C18.4082 10.7022 18.5285 10.3838 18.8615 10.0958C19.2905 9.73118 19.6976 9.32893 20.1752 8.88778C19.5432 8.81122 19.0073 8.71764 18.4738 8.68848C17.9682 8.66174 17.6669 8.43327 17.4797 7.97389C17.2707 7.46348 17.0228 6.96886 16.7627 6.40375C16.488 6.99681 16.234 7.51087 16.0116 8.03952C15.9464 8.22577 15.8252 8.38735 15.6647 8.50219C15.5042 8.61703 15.3121 8.67954 15.1148 8.68118C14.5521 8.72493 13.9919 8.81122 13.3465 8.889C13.8497 9.35323 14.2787 9.75549 14.7149 10.1492C14.8511 10.2577 14.9519 10.4044 15.0043 10.5704C15.0567 10.7365 15.0583 10.9144 15.009 11.0814C14.8729 11.6513 14.7794 12.2322 14.6505 12.8958C15.2266 12.5749 15.7321 12.3088 16.2195 12.0147C16.3758 11.9066 16.561 11.848 16.751 11.8465C16.9411 11.8449 17.1272 11.9006 17.2853 12.0062C17.7762 12.2979 18.2818 12.5676 18.8651 12.8946Z" fill="#566064"/>
<path d="M8.4092 29.8614C8.76082 29.865 9.10351 29.9726 9.39411 30.1706C9.68471 30.3686 9.91022 30.6482 10.0422 30.9741C10.1743 31.3 10.2069 31.6577 10.136 32.0021C10.0651 32.3465 9.89388 32.6623 9.64389 32.9096C9.3939 33.1568 9.07632 33.3246 8.73115 33.3918C8.38598 33.4589 8.02866 33.4224 7.7042 33.2869C7.37974 33.1513 7.10264 32.9228 6.90782 32.63C6.71299 32.3373 6.60915 31.9935 6.60938 31.6418C6.6092 31.4063 6.65577 31.1731 6.7464 30.9558C6.83703 30.7384 6.96991 30.5412 7.13733 30.3756C7.30475 30.21 7.50339 30.0793 7.72172 29.991C7.94004 29.9028 8.17372 29.8587 8.4092 29.8614ZM8.87222 31.6248C8.64983 31.4814 8.51615 31.3271 8.40677 31.3429C8.2974 31.3587 8.18316 31.5312 8.07257 31.6345C8.1941 31.7451 8.2974 31.9165 8.43715 31.9456C8.52587 31.9651 8.66076 31.7864 8.87222 31.6248Z" fill="#566064"/>
<path d="M8.86648 31.624C8.65516 31.7857 8.52036 31.9643 8.42684 31.9449C8.29204 31.9157 8.18395 31.7444 8.0625 31.6338C8.17302 31.5305 8.27382 31.3591 8.39648 31.3421C8.51914 31.3251 8.64423 31.4806 8.86648 31.624Z" fill="#566064"/>
</g>
<defs>
<clipPath id="clip0_2493_474">
<rect width="46.6667" height="46.6667" fill="white" transform="translate(0.671875 0.668945)"/>
</clipPath>
</defs>
</svg>
