<svg width="61" height="63" viewBox="0 0 61 63" fill="none" xmlns="http://www.w3.org/2000/svg">
<g clip-path="url(#clip0_2557_757)">
<path d="M34.4813 0.97168C34.7188 1.27433 35.0172 1.54655 35.1829 1.88763C35.6766 2.90447 36.1016 3.95654 36.5891 4.97338C36.6532 5.08192 36.7385 5.17575 36.8396 5.24903C36.9407 5.32232 37.0554 5.37348 37.1766 5.39933C38.3532 5.57547 39.5438 5.66195 40.7157 5.86691C41.0772 5.9555 41.3906 6.18536 41.5891 6.50744C41.8094 6.89656 41.5985 7.3081 41.261 7.61716C40.3907 8.41782 39.5422 9.2425 38.6657 10.0416C38.5496 10.1261 38.4627 10.2463 38.4178 10.3848C38.3728 10.5233 38.3721 10.6728 38.4157 10.8118C38.675 11.9567 38.8735 13.1161 39.111 14.2674C39.2063 14.7334 39.1813 15.153 38.7782 15.4508C38.375 15.7487 37.9766 15.6462 37.5735 15.4108C36.5594 14.8151 35.5422 14.2194 34.5094 13.6605C34.4043 13.613 34.2907 13.5885 34.1758 13.5885C34.0609 13.5885 33.9473 13.613 33.8422 13.6605C32.8094 14.221 31.7938 14.8167 30.7782 15.4124C30.3766 15.6478 29.975 15.7439 29.575 15.446C29.175 15.1482 29.1516 14.7238 29.2469 14.261C29.4844 13.1097 29.6813 11.9487 29.9438 10.8038C30.025 10.4483 29.9266 10.2561 29.6891 10.0368C28.8454 9.26491 28.0235 8.46746 27.1797 7.69562C26.8157 7.36255 26.5875 6.99584 26.7469 6.48823C26.9063 5.98061 27.3047 5.86852 27.7563 5.81567C28.9 5.68597 30.0454 5.56587 31.1829 5.39453C31.3064 5.37176 31.424 5.32265 31.5279 5.25038C31.6318 5.17811 31.7197 5.08428 31.786 4.97498C32.2813 3.95814 32.7047 2.90447 33.2 1.88763C33.3657 1.54815 33.6688 1.27753 33.9032 0.974882L34.4813 0.97168ZM31.4735 12.8214C32.2141 12.3939 32.8485 12.0528 33.4547 11.6669C33.9625 11.3466 34.4219 11.3466 34.9282 11.6669C35.5297 12.0464 36.161 12.3779 36.8907 12.7878C36.7594 12.0816 36.711 11.5068 36.536 10.9591C36.2313 10.0287 36.4657 9.35779 37.2313 8.77971C37.6844 8.44023 38.0704 8.00468 38.5844 7.51948C37.6813 7.40578 36.9516 7.29369 36.2188 7.22964C35.9845 7.22147 35.7582 7.14053 35.5698 6.99754C35.3815 6.85455 35.24 6.65627 35.1641 6.42898C34.8688 5.7228 34.5391 5.03263 34.1829 4.24958C33.8235 5.05024 33.4985 5.74681 33.1938 6.4578C33.1181 6.6745 32.9813 6.86327 32.8008 7.00013C32.6202 7.13699 32.4041 7.21576 32.1797 7.22643C31.4297 7.29529 30.6844 7.40899 29.7985 7.52108C30.4454 8.13278 30.9891 8.66282 31.5485 9.17524C31.7267 9.31737 31.8594 9.51085 31.9296 9.73083C31.9998 9.95083 32.0042 10.1873 31.9422 10.4099C31.7657 11.1593 31.6438 11.9215 31.4735 12.8214Z" fill="white"/>
<path d="M21.7859 38.0648C23.4743 37.1806 24.9758 35.9639 26.2047 34.4842C28.2828 31.9733 29.4359 29.0189 29.8766 25.8099C30.1766 23.6241 30.2391 21.3982 30.3187 19.1884C30.3797 17.507 31.1375 16.7304 32.7797 16.9049C33.2843 16.9546 33.7846 17.0424 34.2766 17.1675C37.0281 17.8929 38.5312 19.7969 38.6812 22.7049C38.8672 26.2806 38.9125 29.8516 38.3687 33.4033C38.3696 33.479 38.3796 33.5543 38.3984 33.6275C39.7047 33.557 41.0047 33.4674 42.3047 33.4177C44.5297 33.3361 46.7547 33.1999 48.9781 33.2336C50.9844 33.2722 52.9279 33.9574 54.5328 35.192C56.0859 36.3577 56.5891 38.0487 55.9469 39.9191C55.6844 40.6813 55.2609 41.3891 54.8719 42.1001C54.7328 42.3563 54.6969 42.5164 54.8609 42.7854C56.2172 45.0145 55.7984 47.5622 53.7859 49.2019C53.5172 49.4229 53.5359 49.6039 53.5656 49.9049C53.6516 50.8113 53.775 51.732 53.7016 52.6272C53.5922 53.9819 52.8594 55.0115 51.7047 55.6905C51.3922 55.8698 51.275 56.0284 51.3109 56.4239C51.3962 57.5576 51.1429 58.6911 50.5847 59.6738C50.0266 60.6566 49.1899 61.4421 48.1859 61.926C47.9199 62.0458 47.6327 62.1085 47.3422 62.1102C40.2932 62.1924 33.2443 62.265 26.1953 62.328C25.8466 62.3249 25.5006 62.2649 25.1703 62.1502C24.0437 61.7739 22.9266 61.3656 21.8031 60.9668C21.5266 62.0445 21.3562 62.1758 20.2875 62.1758H6.87656C5.74375 62.1758 5.48438 61.918 5.48438 60.7763C5.48438 53.2853 5.48438 45.7943 5.48438 38.3034C5.48438 37.1424 5.725 36.8958 6.85469 36.8958H20.4484C21.3656 36.9022 21.5781 37.0815 21.7859 38.0648ZM32.2234 18.7192C32.2234 19.0779 32.2234 19.3133 32.2234 19.5471C32.2437 23.3662 31.8859 27.1293 30.4891 30.7115C28.8469 34.9214 26.15 38.148 22.0359 40.028C21.949 40.0876 21.8766 40.1668 21.824 40.2595C21.7715 40.3522 21.7403 40.4559 21.7328 40.5628C21.7172 46.5357 21.7234 52.5071 21.7109 58.48C21.7109 58.8355 21.8516 58.9604 22.1453 59.0645C23.1266 59.3959 24.0906 59.7851 25.0812 60.0781C25.7079 60.2764 26.3584 60.3842 27.0141 60.3984C33.5359 60.3551 40.0578 60.259 46.5797 60.227C47.5078 60.227 48.1422 59.8411 48.6672 59.1509C49.0193 58.7072 49.2644 58.1847 49.3828 57.6258C49.5011 57.0669 49.4894 56.4873 49.3484 55.9339C49.1172 54.9154 49.2312 54.6977 50.1969 54.3149C51.3891 53.8346 51.9641 53.0563 51.9156 51.7528C51.859 50.999 51.7313 50.2525 51.5344 49.5238C51.3328 48.6735 51.4297 48.3757 52.1828 47.9753C53.9422 47.0386 54.3094 44.8608 52.9562 43.3907C52.3578 42.7406 52.3844 42.4187 52.8687 41.6629C53.3842 40.8933 53.8278 40.0757 54.1937 39.2209C54.5719 38.2777 54.2922 37.4034 53.4844 36.7725C52.2565 35.7934 50.762 35.2299 49.2078 35.16C46.9891 35.0799 44.7594 35.2288 42.5359 35.3201C40.8 35.3906 39.0672 35.5315 37.3312 35.6131C36.5391 35.6516 36.1516 35.1456 36.2953 34.3449C36.3562 34.0118 36.4281 33.6803 36.4812 33.3457C37.0625 29.7555 37.0187 26.1397 36.7937 22.532C36.6781 20.7 35.7625 19.5871 34.0453 19.0827C33.4781 18.9226 32.8937 18.8521 32.2234 18.7192ZM19.8078 60.2206V38.8718H7.39062V60.2206H19.8078Z" fill="white"/>
<path d="M41.8644 18.8229C42.1019 17.6251 42.3253 16.3441 42.6066 15.0855C42.6487 14.9464 42.6467 14.7973 42.6009 14.6595C42.5552 14.5217 42.468 14.4023 42.3519 14.3184C41.4941 13.5322 40.6581 12.7171 39.8019 11.9325C39.4503 11.6122 39.2612 11.2471 39.4112 10.7683C39.5612 10.2895 39.9659 10.1406 40.4175 10.0909C41.5425 9.96764 42.6659 9.82352 43.7925 9.71623C43.9455 9.7148 44.0943 9.66409 44.2177 9.57127C44.341 9.47845 44.4328 9.34822 44.48 9.199C44.9284 8.13733 45.4175 7.09327 45.8862 6.0396C46.0722 5.61685 46.3097 5.27577 46.8237 5.26296C47.3628 5.25175 47.6159 5.59924 47.8128 6.046C48.2816 7.11889 48.7503 8.19497 49.2597 9.24864C49.3233 9.35983 49.4089 9.45625 49.5108 9.53179C49.6127 9.60732 49.7289 9.66031 49.8519 9.6874C50.9706 9.84754 52.0972 9.96603 53.2237 10.0861C53.6925 10.1358 54.1222 10.2575 54.2831 10.7763C54.4441 11.2951 54.2034 11.6506 53.8409 11.9821C52.9987 12.7539 52.1784 13.5546 51.3331 14.3248C51.2175 14.4104 51.1315 14.5315 51.0877 14.6706C51.0438 14.8097 51.0444 14.9595 51.0894 15.0983C51.3456 16.2448 51.5425 17.4058 51.7831 18.5555C51.8816 19.0247 51.8425 19.4394 51.4441 19.7357C51.0456 20.0319 50.6456 19.9246 50.2425 19.6876C49.2456 19.0984 48.2316 18.5427 47.2409 17.9438C47.1246 17.8601 46.9857 17.8159 46.8436 17.8173C46.7015 17.8187 46.5634 17.8658 46.4487 17.9518C45.4217 18.5667 44.3857 19.1651 43.3409 19.7469C42.5862 20.1616 41.8425 19.7197 41.8644 18.8229ZM42.4425 11.7963C43.0862 12.4048 43.6206 12.9173 44.1722 13.4265C44.5566 13.7756 44.7144 14.1647 44.5894 14.7075C44.4159 15.457 44.2956 16.2208 44.1316 17.0871C44.8737 16.6644 45.5269 16.3153 46.155 15.9261C46.3571 15.7854 46.5958 15.7101 46.8401 15.7101C47.0845 15.7101 47.3232 15.7854 47.5253 15.9261C48.1503 16.3121 48.8066 16.666 49.5566 17.0919C49.4003 16.2464 49.2909 15.5018 49.1097 14.778C48.9644 14.1935 49.1331 13.7804 49.5566 13.4025C50.1066 12.9125 50.6316 12.392 51.2409 11.814C50.4284 11.7131 49.7378 11.5882 49.0441 11.5513C48.3925 11.5161 48.0081 11.2087 47.7675 10.6082C47.5003 9.93881 47.1831 9.28868 46.8472 8.53926C46.4847 9.33992 46.1597 10.0461 45.8566 10.7555C45.7729 10.9801 45.6261 11.1742 45.4347 11.3133C45.2434 11.4524 45.0161 11.5303 44.7816 11.5369C44.0409 11.5898 43.3097 11.7003 42.4425 11.7963Z" fill="white"/>
<path d="M16.5583 18.8279C16.7989 17.5981 17.0645 16.3298 17.2802 15.0536C17.2922 14.9279 17.2786 14.8011 17.2401 14.6812C17.2016 14.5612 17.1392 14.4508 17.0567 14.357C16.2177 13.5211 15.3505 12.7141 14.4786 11.9134C14.1223 11.5931 13.9567 11.212 14.1145 10.7428C14.2723 10.2737 14.6489 10.1439 15.0817 10.1023C16.2067 9.97581 17.3302 9.83009 18.4567 9.7276C18.6194 9.72625 18.7775 9.67292 18.9092 9.57503C19.0408 9.47714 19.1394 9.33959 19.1911 9.18156C19.6364 8.11988 20.1286 7.07582 20.5895 6.02055C20.7786 5.5914 21.0317 5.26953 21.5395 5.26953C22.0473 5.26953 22.3005 5.5898 22.4895 6.02375C22.9583 7.09664 23.427 8.17432 23.938 9.22639C24.005 9.34452 24.0951 9.44718 24.2026 9.52792C24.3102 9.60866 24.4329 9.66574 24.563 9.69558C25.7005 9.86532 26.8473 9.97421 27.9926 10.1023C28.4239 10.1504 28.8036 10.2945 28.9567 10.7524C29.1098 11.2104 28.9426 11.6011 28.5911 11.9262C27.7223 12.7269 26.852 13.5275 26.013 14.3666C25.9324 14.4614 25.8717 14.5721 25.8346 14.692C25.7975 14.8118 25.7848 14.9381 25.7973 15.0632C25.9911 16.2226 26.227 17.3755 26.4645 18.5269C26.5598 18.988 26.552 19.4108 26.152 19.7214C25.7317 20.0497 25.3192 19.9264 24.902 19.6782C23.9052 19.0905 22.8927 18.5317 21.9005 17.9344C21.7925 17.8543 21.6626 17.8112 21.5294 17.8112C21.3961 17.8112 21.2662 17.8543 21.1583 17.9344C20.1161 18.5589 19.0645 19.1722 18.0005 19.7583C17.2583 20.1682 16.5177 19.6926 16.5583 18.8279ZM24.2473 17.0809C24.0911 16.237 23.977 15.4956 23.8005 14.7702C23.6598 14.1921 23.8145 13.7725 24.2427 13.393C24.7942 12.9126 25.3176 12.3826 25.9317 11.8013C25.1192 11.7004 24.4302 11.5771 23.7442 11.5387C23.0942 11.5035 22.7067 11.2024 22.4661 10.5971C22.1973 9.92457 21.8786 9.27283 21.5442 8.52822C21.1911 9.30966 20.8645 9.98702 20.5786 10.6836C20.4947 10.929 20.3389 11.1419 20.1325 11.2932C19.9261 11.4446 19.6792 11.5269 19.4255 11.5291C18.702 11.5867 17.9817 11.7004 17.152 11.8029C17.7989 12.4146 18.3505 12.9447 18.9114 13.4635C19.0865 13.6064 19.216 13.7996 19.2834 14.0184C19.3508 14.2372 19.3529 14.4717 19.2895 14.6917C19.1145 15.4427 18.9942 16.2081 18.8286 17.0825C19.5692 16.6597 20.2192 16.309 20.8458 15.9215C21.0468 15.7791 21.2849 15.7018 21.5292 15.6998C21.7736 15.6978 22.0129 15.7712 22.2161 15.9103C22.8473 16.2946 23.4973 16.6501 24.2473 17.0809Z" fill="white"/>
<path d="M10.7984 39.4367C11.2505 39.4414 11.6911 39.5832 12.0648 39.844C12.4384 40.1049 12.7283 40.4733 12.8981 40.9027C13.0678 41.3322 13.1097 41.8035 13.0186 42.2573C12.9275 42.7112 12.7073 43.1272 12.3859 43.453C12.0645 43.7789 11.6562 44 11.2124 44.0884C10.7686 44.1769 10.3092 44.1288 9.89201 43.9502C9.47484 43.7716 9.11858 43.4705 8.86809 43.0847C8.6176 42.699 8.48409 42.246 8.48438 41.7826C8.48415 41.4723 8.54403 41.1651 8.66055 40.8787C8.77708 40.5922 8.94792 40.3324 9.16318 40.1142C9.37843 39.896 9.63382 39.7237 9.91453 39.6074C10.1952 39.4911 10.4957 39.4331 10.7984 39.4367ZM11.3937 41.7602C11.1078 41.5712 10.9359 41.3679 10.7953 41.3887C10.6547 41.4095 10.5078 41.6369 10.3656 41.773C10.5219 41.9187 10.6547 42.1445 10.8344 42.1829C10.9484 42.2086 11.1219 41.9732 11.3937 41.7602Z" fill="white"/>
<path d="M11.3931 41.7609C11.1214 41.9739 10.948 42.2093 10.8278 42.1836C10.6545 42.1452 10.5155 41.9194 10.3594 41.7737C10.5015 41.6376 10.6311 41.4118 10.7888 41.3894C10.9465 41.367 11.1073 41.5719 11.3931 41.7609Z" fill="white"/>
</g>
<defs>
<clipPath id="clip0_2557_757">
<rect width="60" height="61.4907" fill="white" transform="translate(0.851562 0.97168)"/>
</clipPath>
</defs>
</svg>
