<svg width="54" height="58" viewBox="0 0 54 58" fill="none" xmlns="http://www.w3.org/2000/svg">
<path d="M26.9975 0.5625C25.6303 0.5625 24.2719 1.02188 23.1016 1.86188L19.4791 4.39063L15.3053 4.9375H15.2375L15.1697 5.00531C13.8004 5.31347 12.5466 6.0039 11.5542 6.99636C10.5617 7.98883 9.87128 9.24257 9.56312 10.6119L9.4975 10.6797V10.7475L8.95062 14.9869L6.42187 18.2681L6.35187 18.3359V18.4038C4.82281 20.8472 4.755 24.0016 6.42187 26.3334L9.01844 29.9559L9.70312 33.7184L2.66156 44.4481L0.40625 47.7994H10.8647L13.3934 53.6772L14.9662 57.4375L17.2216 54.0184L24.1253 43.6278C25.9803 44.3891 28.0737 44.4591 29.8697 43.6278L36.7734 54.0184L39.0287 57.4375L40.6016 53.6772L43.1303 47.7994H53.5887L51.3334 44.4481L44.4975 34.0597L45.0444 29.9581L47.5731 26.3356L47.6431 26.2678V26.2C49.1722 23.7566 49.24 20.67 47.5731 18.3381L45.0444 14.7134L44.2241 10.6119H44.2919C44.2831 10.5594 44.2328 10.5244 44.2241 10.4741C43.8303 7.61281 41.5662 5.28969 38.6875 4.9375H38.6175L34.5159 4.39063L30.8934 1.86188C29.7623 1.03254 28.4 0.578165 26.9975 0.5625ZM26.9975 5.00531C27.5006 5.00531 27.9972 5.15844 28.3647 5.41656L32.2606 8.21875L32.7397 8.56L33.2866 8.63L38.0728 9.3125H38.1384C39.1228 9.42188 39.8053 10.1066 39.9169 11.0909V11.2266L40.8072 16.0806L40.8728 16.5597L41.2162 16.9688L44.0184 20.8647C44.5412 21.5909 44.6091 22.8225 43.9506 23.8725L40.875 28.1797L40.805 28.7266L40.1225 33.5128V33.5784C40.0856 33.9202 39.9687 34.2484 39.7812 34.5366L39.6434 34.6066V34.6722C39.3183 35.0627 38.8521 35.3088 38.3462 35.3569H38.2084L33.2187 36.2472L32.6719 36.3128L32.2606 36.6563L28.3647 39.4584C27.6384 39.9813 26.3391 40.0491 25.2891 39.3906L21.7344 36.6563L21.3231 36.315L20.7084 36.245L15.9222 35.5625H15.8566C15.5475 35.5343 15.2496 35.4326 14.9879 35.266C14.7261 35.0993 14.5079 34.8725 14.3516 34.6044C14.2067 34.3519 14.1138 34.073 14.0781 33.7841V33.6484L13.19 28.6588L13.12 28.1119L12.7787 27.7006L9.97656 23.8047C9.45375 23.0784 9.38594 21.7791 10.0444 20.7291L12.7787 17.1744L13.12 16.7631L13.1878 16.1484L13.8047 11.5678C13.8134 11.535 13.8637 11.535 13.8725 11.5C14.0101 10.974 14.2853 10.4942 14.6697 10.1097C15.0542 9.7253 15.534 9.45013 16.06 9.3125C16.095 9.30375 16.095 9.25344 16.1278 9.24469L20.7084 8.62781L21.2553 8.56219L21.7344 8.21875L25.6303 5.41656C25.9978 5.16062 26.4944 5.00531 26.9975 5.00531ZM42.1044 38.2969L45.4556 43.4244H40.1881L39.6412 44.7916L38.1384 48.2763L33.49 41.1669L34.5137 40.4166L38.8231 39.6641V39.7319C38.8734 39.7231 38.9062 39.6728 38.9587 39.6641C40.1101 39.498 41.1978 39.0258 42.1044 38.2969ZM11.8906 38.3647C12.8405 39.2282 14.0338 39.7775 15.3075 39.9375H15.3753L19.5469 40.4844L20.5028 41.2369L15.8544 48.2763L14.3516 44.7916L13.8047 43.4244H8.54156L11.8906 38.3647Z" fill="white"/>
</svg>
