<svg width="20" height="20" viewBox="0 0 20 20" fill="none" xmlns="http://www.w3.org/2000/svg">
<path d="M0.742188 2.2814C0.742188 1.40484 1.44977 0.697266 2.32632 0.697266C3.20287 0.697266 3.91045 1.40484 3.91045 2.2814C3.91045 3.15795 3.20287 3.86553 2.32632 3.86553C1.44977 3.86553 0.742188 3.15795 0.742188 2.2814ZM8.1348 2.2814C8.1348 1.40484 8.84238 0.697266 9.71893 0.697266C10.5955 0.697266 11.3031 1.40484 11.3031 2.2814C11.3031 3.15795 10.5955 3.86553 9.71893 3.86553C8.84238 3.86553 8.1348 3.15795 8.1348 2.2814ZM15.5274 2.2814C15.5274 1.40484 16.235 0.697266 17.1115 0.697266C17.9881 0.697266 18.6957 1.40484 18.6957 2.2814C18.6957 3.15795 17.9881 3.86553 17.1115 3.86553C16.235 3.86553 15.5274 3.15795 15.5274 2.2814Z" fill="#0A3459" stroke="#0A3459" stroke-linecap="round" stroke-linejoin="round" stroke-dasharray="12 12"/>
<path d="M0.742188 9.67397C0.742188 8.79742 1.44977 8.08984 2.32632 8.08984C3.20287 8.08984 3.91045 8.79742 3.91045 9.67397C3.91045 10.5505 3.20287 11.2581 2.32632 11.2581C1.44977 11.2581 0.742188 10.5505 0.742188 9.67397ZM8.1348 9.67397C8.1348 8.79742 8.84238 8.08984 9.71893 8.08984C10.5955 8.08984 11.3031 8.79742 11.3031 9.67397C11.3031 10.5505 10.5955 11.2581 9.71893 11.2581C8.84238 11.2581 8.1348 10.5505 8.1348 9.67397ZM15.5274 9.67397C15.5274 8.79742 16.235 8.08984 17.1115 8.08984C17.9881 8.08984 18.6957 8.79742 18.6957 9.67397C18.6957 10.5505 17.9881 11.2581 17.1115 11.2581C16.235 11.2581 15.5274 10.5505 15.5274 9.67397Z" fill="#0A3459" stroke="#0A3459" stroke-linecap="round" stroke-linejoin="round" stroke-dasharray="12 12"/>
<path d="M0.742188 17.0666C0.742188 16.19 1.44977 15.4824 2.32632 15.4824C3.20287 15.4824 3.91045 16.19 3.91045 17.0666C3.91045 17.9431 3.20287 18.6507 2.32632 18.6507C1.44977 18.6507 0.742188 17.9431 0.742188 17.0666ZM8.1348 17.0666C8.1348 16.19 8.84238 15.4824 9.71893 15.4824C10.5955 15.4824 11.3031 16.19 11.3031 17.0666C11.3031 17.9431 10.5955 18.6507 9.71893 18.6507C8.84238 18.6507 8.1348 17.9431 8.1348 17.0666ZM15.5274 17.0666C15.5274 16.19 16.235 15.4824 17.1115 15.4824C17.9881 15.4824 18.6957 16.19 18.6957 17.0666C18.6957 17.9431 17.9881 18.6507 17.1115 18.6507C16.235 18.6507 15.5274 17.9431 15.5274 17.0666Z" fill="#0A3459" stroke="#0A3459" stroke-linecap="round" stroke-linejoin="round" stroke-dasharray="12 12"/>
</svg>
