<svg width="14" height="15" viewBox="0 0 14 15" fill="none" xmlns="http://www.w3.org/2000/svg">
<path d="M7.64058 0.347656C8.41679 0.349726 8.81076 0.353866 9.15091 0.363526L9.28476 0.368356C9.43932 0.373876 9.5918 0.380775 9.77602 0.389055C10.5101 0.423554 11.0111 0.539472 11.4506 0.709898C11.9059 0.885154 12.2896 1.12251 12.6732 1.50545C13.024 1.85037 13.2955 2.2676 13.4687 2.7281C13.6391 3.16762 13.755 3.66855 13.7895 4.40338C13.7978 4.58692 13.8047 4.7394 13.8102 4.89465L13.8144 5.02851C13.8247 5.36798 13.8289 5.76196 13.8303 6.53819L13.8309 7.05292V7.9568C13.8326 8.46008 13.8273 8.96335 13.8151 9.46648L13.8109 9.60034C13.8054 9.75559 13.7985 9.90807 13.7902 10.0916C13.7557 10.8264 13.6384 11.3267 13.4687 11.7669C13.296 12.2276 13.0245 12.645 12.6732 12.9895C12.3282 13.3403 11.911 13.6117 11.4506 13.7851C11.0111 13.9555 10.5101 14.0714 9.77602 14.1059C9.6123 14.1136 9.44855 14.1205 9.28476 14.1266L9.15091 14.1308C8.81076 14.1404 8.41679 14.1453 7.64058 14.1466L7.12586 14.1473H6.2227C5.71921 14.1491 5.21571 14.1438 4.71237 14.1315L4.57852 14.1273C4.41472 14.1211 4.25097 14.114 4.08726 14.1059C3.35314 14.0714 2.85222 13.9555 2.41203 13.7851C1.95159 13.6122 1.53454 13.3406 1.1901 12.9895C0.838938 12.6447 0.567215 12.2275 0.39388 11.7669C0.223458 11.3274 0.107544 10.8264 0.073046 10.0916C0.0653589 9.92789 0.0584592 9.76413 0.052347 9.60034L0.0488973 9.46648C0.0361827 8.96336 0.0304323 8.46008 0.0316481 7.9568V6.53819C0.0297224 6.03492 0.0347827 5.53164 0.0468274 5.02851L0.0516571 4.89465C0.0571768 4.7394 0.0640765 4.58692 0.072356 4.40338C0.106854 3.66855 0.222768 3.16831 0.39319 2.7281C0.566449 2.26713 0.838714 1.84977 1.19079 1.50545C1.53514 1.15457 1.95192 0.883075 2.41203 0.709898C2.85222 0.539472 3.35245 0.423554 4.08726 0.389055C4.27079 0.380775 4.42396 0.373876 4.57852 0.368356L4.71237 0.364216C5.21549 0.351957 5.71875 0.346666 6.22201 0.348346L7.64058 0.347656ZM6.93129 3.79758C6.01634 3.79758 5.13887 4.16105 4.4919 4.80803C3.84493 5.45502 3.48147 6.33252 3.48147 7.24749C3.48147 8.16247 3.84493 9.03997 4.4919 9.68696C5.13887 10.3339 6.01634 10.6974 6.93129 10.6974C7.84624 10.6974 8.72372 10.3339 9.37069 9.68696C10.0177 9.03997 10.3811 8.16247 10.3811 7.24749C10.3811 6.33252 10.0177 5.45502 9.37069 4.80803C8.72372 4.16105 7.84624 3.79758 6.93129 3.79758ZM6.93129 5.17754C7.20312 5.1775 7.47229 5.23099 7.72343 5.33498C7.97458 5.43896 8.20279 5.59139 8.39503 5.78357C8.58727 5.97575 8.73978 6.20392 8.84384 6.45504C8.9479 6.70616 9.00149 6.97532 9.00153 7.24715C9.00158 7.51898 8.94808 7.78816 8.8441 8.03931C8.74012 8.29047 8.5877 8.51868 8.39552 8.71093C8.20334 8.90317 7.97519 9.05568 7.72407 9.15975C7.47296 9.26381 7.20381 9.3174 6.93198 9.31745C6.38301 9.31745 5.85653 9.09936 5.46835 8.71117C5.08017 8.32298 4.86209 7.79648 4.86209 7.24749C4.86209 6.69851 5.08017 6.17201 5.46835 5.78382C5.85653 5.39563 6.38301 5.17754 6.93198 5.17754M10.5543 2.7626C10.3256 2.7626 10.1062 2.85347 9.94445 3.01521C9.78271 3.17696 9.69184 3.39634 9.69184 3.62508C9.69184 3.85382 9.78271 4.0732 9.94445 4.23494C10.1062 4.39669 10.3256 4.48756 10.5543 4.48756C10.783 4.48756 11.0024 4.39669 11.1641 4.23494C11.3259 4.0732 11.4168 3.85382 11.4168 3.62508C11.4168 3.39634 11.3259 3.17696 11.1641 3.01521C11.0024 2.85347 10.783 2.7626 10.5543 2.7626Z" fill="white"/>
</svg>
