<svg width="13" height="13" viewBox="0 0 13 13" fill="none" xmlns="http://www.w3.org/2000/svg">
<path d="M2.91817 1.85916C2.918 2.20988 2.77851 2.54616 2.53039 2.79402C2.28228 3.04189 1.94586 3.18105 1.59514 3.18087C1.24443 3.18069 0.908151 3.04121 0.660283 2.79309C0.412415 2.54497 0.273262 2.20855 0.273438 1.85784C0.273613 1.50713 0.413102 1.17085 0.661218 0.922978C0.909334 0.67511 1.24575 0.535958 1.59647 0.536133C1.94718 0.536308 2.28346 0.675797 2.53133 0.923913C2.7792 1.17203 2.91835 1.50845 2.91817 1.85916ZM2.95785 4.16008H0.313109V12.4381H2.95785V4.16008ZM7.13653 4.16008H4.50502V12.4381H7.11008V8.09413C7.11008 5.6742 10.2639 5.44939 10.2639 8.09413V12.4381H12.8756V7.19492C12.8756 3.11541 8.20765 3.26748 7.11008 5.27087L7.13653 4.16008Z" fill="white"/>
</svg>
