<svg width="15" height="19" viewBox="0 0 15 19" fill="none" xmlns="http://www.w3.org/2000/svg">
<path d="M7.5 10.291C8.81168 10.291 9.875 9.22769 9.875 7.91602C9.875 6.60434 8.81168 5.54102 7.5 5.54102C6.18832 5.54102 5.125 6.60434 5.125 7.91602C5.125 9.22769 6.18832 10.291 7.5 10.291Z" stroke="#2E448D" stroke-opacity="0.7" stroke-width="2" stroke-linecap="round" stroke-linejoin="round"/>
<path d="M7.4974 1.58301C5.81769 1.58301 4.20678 2.25027 3.01905 3.438C1.83132 4.62573 1.16406 6.23664 1.16406 7.91634C1.16406 9.41417 1.48231 10.3943 2.35156 11.4788L7.4974 17.4163L12.6432 11.4788C13.5125 10.3943 13.8307 9.41417 13.8307 7.91634C13.8307 6.23664 13.1635 4.62573 11.9757 3.438C10.788 2.25027 9.1771 1.58301 7.4974 1.58301Z" stroke="#2E448D" stroke-opacity="0.7" stroke-width="2" stroke-linecap="round" stroke-linejoin="round"/>
</svg>
