<svg width="18" height="18" viewBox="0 0 18 18" fill="none" xmlns="http://www.w3.org/2000/svg">
<path d="M10.8245 1.25353C10.8489 1.16215 10.8911 1.07649 10.9487 1.00143C11.0063 0.92637 11.078 0.863388 11.16 0.816082C11.2419 0.768775 11.3323 0.738071 11.4261 0.725725C11.5199 0.713378 11.6151 0.719631 11.7065 0.744125C13.0413 1.09238 14.2591 1.79016 15.2345 2.76558C16.21 3.741 16.9077 4.95881 17.256 6.29358C17.2805 6.38494 17.2868 6.48023 17.2744 6.57401C17.2621 6.66779 17.2314 6.75822 17.184 6.84013C17.1367 6.92204 17.0738 6.99382 16.9987 7.05138C16.9236 7.10894 16.838 7.15115 16.7466 7.17559C16.6858 7.19159 16.6232 7.19976 16.5603 7.19989C16.4016 7.19988 16.2474 7.14747 16.1216 7.0508C15.9958 6.95412 15.9054 6.8186 15.8646 6.66528C15.5805 5.57566 15.0111 4.5815 14.2148 3.78528C13.4186 2.98905 12.4244 2.41957 11.3348 2.13554C11.2433 2.11119 11.1576 2.06906 11.0824 2.01154C11.0073 1.95402 10.9442 1.88225 10.8968 1.80033C10.8494 1.71841 10.8186 1.62795 10.8062 1.53413C10.7938 1.4403 10.8 1.34495 10.8245 1.25353ZM10.6148 5.01557C11.8559 5.34677 12.6533 6.14418 12.9845 7.38529C13.0254 7.5386 13.1157 7.67413 13.2416 7.7708C13.3674 7.86748 13.5216 7.91989 13.6802 7.9199C13.7431 7.91976 13.8057 7.9116 13.8665 7.8956C13.9579 7.87115 14.0436 7.82895 14.1186 7.77139C14.1937 7.71383 14.2567 7.64205 14.304 7.56014C14.3513 7.47823 14.382 7.3878 14.3944 7.29402C14.4067 7.20024 14.4004 7.10495 14.376 7.01359C13.9151 5.28917 12.7109 4.08496 10.9865 3.62415C10.802 3.57486 10.6054 3.60089 10.4401 3.6965C10.2748 3.79212 10.1542 3.9495 10.1049 4.13401C10.0556 4.31852 10.0817 4.51506 10.1773 4.68038C10.2729 4.84571 10.4303 4.96628 10.6148 5.01557ZM17.9895 13.5971C17.829 14.8167 17.2301 15.9361 16.3046 16.7463C15.3791 17.5566 14.1903 18.0022 12.9602 18C5.81411 18 8.14392e-06 12.1859 8.14392e-06 5.03987C-0.00219688 3.80982 0.443434 2.62102 1.25367 1.69552C2.06391 0.770017 3.18334 0.171096 4.40288 0.010618C4.71128 -0.0270376 5.02358 0.0360541 5.29317 0.190474C5.56276 0.344895 5.77517 0.582362 5.89871 0.867426L7.79954 5.11097V5.12177C7.89412 5.33998 7.93318 5.57822 7.91324 5.8152C7.89329 6.05219 7.81496 6.28055 7.68524 6.47988C7.66904 6.50418 7.65194 6.52668 7.63394 6.54918L5.76011 8.7704C6.43422 10.1402 7.86704 11.5604 9.25487 12.2363L11.4455 10.3724C11.467 10.3543 11.4895 10.3375 11.513 10.322C11.7122 10.1892 11.9413 10.1081 12.1797 10.0861C12.4181 10.0641 12.6582 10.1019 12.8783 10.196L12.89 10.2014L17.13 12.1013C17.4156 12.2244 17.6536 12.4367 17.8086 12.7063C17.9635 12.9759 18.027 13.2884 17.9895 13.5971ZM16.5603 13.4171H16.5504L12.3203 11.5226L10.1288 13.3865C10.1076 13.4046 10.0853 13.4215 10.0622 13.4369C9.85496 13.5752 9.61542 13.6573 9.36696 13.6753C9.1185 13.6933 8.86963 13.6465 8.64466 13.5395C6.95893 12.725 5.2786 11.0573 4.46318 9.38961C4.35521 9.16628 4.30676 8.91884 4.32253 8.67128C4.33829 8.42371 4.41775 8.18442 4.55319 7.9766C4.56841 7.95216 4.58557 7.92899 4.60449 7.9073L6.48012 5.68337L4.59009 1.45333C4.58973 1.44974 4.58973 1.44612 4.59009 1.44253C3.7173 1.55638 2.91595 1.98448 2.3361 2.64667C1.75625 3.30885 1.43767 4.1597 1.44003 5.03987C1.44337 8.09417 2.65817 11.0224 4.8179 13.1821C6.97764 15.3418 9.90591 16.5566 12.9602 16.56C13.8399 16.563 14.6905 16.2455 15.3531 15.667C16.0156 15.0884 16.4448 14.2883 16.5603 13.4162V13.4171Z" fill="#2E448D" fill-opacity="0.7"/>
</svg>
