<svg width="25" height="25" viewBox="0 0 25 25" fill="none" xmlns="http://www.w3.org/2000/svg">
<path d="M15.034 1.74101C15.068 1.6141 15.1266 1.49512 15.2065 1.39087C15.2865 1.28663 15.3862 1.19915 15.4999 1.13345C15.6137 1.06774 15.7393 1.0251 15.8695 1.00795C15.9998 0.990803 16.1321 0.999487 16.259 1.03351C18.1129 1.5172 19.8043 2.48633 21.1591 3.84108C22.5138 5.19583 23.483 6.88723 23.9667 8.74108C24.0007 8.86797 24.0094 9.00033 23.9922 9.13057C23.9751 9.26082 23.9324 9.38642 23.8667 9.50018C23.801 9.61394 23.7136 9.71364 23.6093 9.79359C23.5051 9.87353 23.3861 9.93215 23.2592 9.96609C23.1747 9.98832 23.0877 9.99966 23.0004 9.99984C22.78 9.99984 22.5658 9.92704 22.3911 9.79277C22.2164 9.6585 22.0909 9.47027 22.0341 9.25734C21.6396 7.74397 20.8487 6.36319 19.7428 5.25733C18.6369 4.15146 17.2562 3.36051 15.7428 2.96603C15.6158 2.93221 15.4966 2.87369 15.3923 2.79381C15.2879 2.71392 15.2003 2.61424 15.1344 2.50046C15.0686 2.38668 15.0258 2.26105 15.0086 2.13073C14.9914 2.00042 15 1.86799 15.034 1.74101ZM14.7428 6.96606C16.4665 7.42607 17.5741 8.53358 18.0341 10.2573C18.0908 10.4703 18.2163 10.6585 18.391 10.7928C18.5658 10.9271 18.78 10.9998 19.0003 10.9999C19.0877 10.9997 19.1746 10.9883 19.2591 10.9661C19.386 10.9322 19.505 10.8735 19.6092 10.7936C19.7135 10.7137 19.801 10.614 19.8667 10.5002C19.9324 10.3864 19.975 10.2608 19.9922 10.1306C20.0093 10.0003 20.0006 9.86798 19.9666 9.74109C19.3266 7.34607 17.6541 5.67355 15.259 5.03355C15.0028 4.96509 14.7298 5.00123 14.5002 5.13403C14.2705 5.26683 14.1031 5.48541 14.0346 5.74168C13.9662 5.99795 14.0023 6.27091 14.1351 6.50053C14.2679 6.73015 14.4865 6.89761 14.7428 6.96606ZM24.9854 18.8849C24.7626 20.5787 23.9307 22.1335 22.6453 23.2588C21.3598 24.3841 19.7087 25.003 18.0003 25C8.07515 25 1.1311e-05 16.9249 1.1311e-05 6.99981C-0.00305122 5.29141 0.615881 3.64031 1.74121 2.35489C2.86653 1.06947 4.4213 0.237633 6.11512 0.0147472C6.54344 -0.0375522 6.97719 0.0500751 7.35162 0.264548C7.72605 0.479021 8.02107 0.808836 8.19265 1.20476L10.8327 7.09857V7.11357C10.9641 7.41664 11.0183 7.74752 10.9906 8.07667C10.9629 8.40582 10.8541 8.72298 10.6739 8.99983C10.6514 9.03358 10.6277 9.06483 10.6027 9.09608L8.00015 12.1811C8.93641 14.0836 10.9264 16.0562 12.854 16.9949L15.8965 14.4061C15.9264 14.381 15.9577 14.3576 15.9903 14.3361C16.2669 14.1516 16.5852 14.039 16.9163 14.0085C17.2474 13.9779 17.5809 14.0304 17.8866 14.1611L17.9028 14.1686L23.7917 16.8074C24.1883 16.9784 24.5189 17.2731 24.7341 17.6476C24.9493 18.0221 25.0375 18.4562 24.9854 18.8849ZM23.0004 18.6349H22.9867L17.1116 16.0037L14.0678 18.5924C14.0383 18.6175 14.0074 18.6409 13.9753 18.6624C13.6874 18.8544 13.3547 18.9685 13.0097 18.9935C12.6646 19.0185 12.3189 18.9535 12.0065 18.8049C9.66518 17.6737 7.33139 15.3574 6.19887 13.0411C6.0489 12.7309 5.98161 12.3873 6.00351 12.0434C6.02541 11.6996 6.13576 11.3673 6.32387 11.0786C6.34502 11.0447 6.36884 11.0125 6.39512 10.9824L9.00017 7.89357L6.37512 2.01852C6.37462 2.01353 6.37462 2.0085 6.37512 2.00352C5.16292 2.16164 4.04993 2.75623 3.24458 3.67593C2.43924 4.59562 1.99677 5.77736 2.00005 6.99981C2.00468 11.2419 3.6919 15.3089 6.69153 18.3085C9.69116 21.3081 13.7582 22.9953 18.0003 23C19.222 23.0042 20.4035 22.5632 21.3237 21.7597C22.2439 20.9561 22.84 19.8448 23.0004 18.6337V18.6349Z" fill="#CACACA" fill-opacity="0.7"/>
</svg>
