<svg width="73" height="14" viewBox="0 0 73 14" fill="none" xmlns="http://www.w3.org/2000/svg">
<path d="M2.86522 12.79L3.55564 8.90995L3.59784 8.67284L3.43873 8.49204L1.00818 5.73014L4.09161 5.38015L4.41173 5.34381L4.51093 5.03729L5.61562 1.62376L6.72022 5.03634L6.81943 5.34283L7.13952 5.37917L10.2224 5.72916L7.79237 8.49111L7.63331 8.6719L7.6755 8.90898L8.36598 12.7894L5.9258 10.8588L5.61552 10.6133L5.30527 10.8588L2.86522 12.79Z" fill="#E62415" stroke="#E62415"/>
<path d="M18.7793 12.79L19.4697 8.90995L19.5119 8.67284L19.3528 8.49204L16.9222 5.73014L20.0057 5.38015L20.3258 5.34381L20.425 5.03729L21.5297 1.62376L22.6343 5.03634L22.7335 5.34283L23.0536 5.37917L26.1364 5.72916L23.7064 8.49111L23.5474 8.6719L23.5896 8.90898L24.28 12.7894L21.8399 10.8588L21.5296 10.6133L21.2193 10.8588L18.7793 12.79Z" fill="#E62415" stroke="#E62415"/>
<path d="M34.6933 12.79L35.3838 8.90995L35.426 8.67284L35.2669 8.49204L32.8363 5.73014L35.9197 5.38015L36.2399 5.34381L36.3391 5.03729L37.4437 1.62376L38.5483 5.03634L38.6476 5.34283L38.9676 5.37917L42.0505 5.72916L39.6205 8.49111L39.4614 8.6719L39.5036 8.90898L40.1941 12.7894L37.7539 10.8588L37.4436 10.6133L37.1334 10.8588L34.6933 12.79Z" fill="#E62415" stroke="#E62415"/>
<path d="M48.7168 12.79L49.4072 8.90995L49.4494 8.67284L49.2903 8.49204L46.8597 5.73014L49.9432 5.38015L50.2633 5.34381L50.3625 5.03729L51.4672 1.62376L52.5718 5.03634L52.671 5.34283L52.9911 5.37917L56.0739 5.72916L53.6439 8.49111L53.4849 8.6719L53.5271 8.90898L54.2175 12.7894L51.7774 10.8588L51.4671 10.6133L51.1568 10.8588L48.7168 12.79Z" fill="#E62415" fill-opacity="0.827451" stroke="#E62415"/>
<path d="M64.6308 12.79L65.3213 8.90995L65.3635 8.67284L65.2044 8.49204L62.7738 5.73014L65.8572 5.38015L66.1774 5.34381L66.2766 5.03729L67.3812 1.62376L68.4858 5.03634L68.5851 5.34283L68.9051 5.37917L71.988 5.72916L69.558 8.49111L69.3989 8.6719L69.4411 8.90898L70.1316 12.7894L67.6914 10.8588L67.3811 10.6133L67.0709 10.8588L64.6308 12.79Z" fill="#AFAFAF" stroke="#AFAFAF"/>
</svg>
