<svg width="60" height="62" viewBox="0 0 60 62" fill="none" xmlns="http://www.w3.org/2000/svg">
<path d="M0.06375 32.029C0.7275 48.3836 13.8806 61.4907 30 61.4907C46.1194 61.4907 59.2725 48.3836 59.9362 32.029C59.9757 31.926 59.9973 31.8167 60 31.7061C60 31.637 59.9756 31.5774 59.9625 31.514C59.9681 31.2565 60 31.0048 60 30.7453C60 13.7931 46.5412 0 30 0C13.4587 0 0 13.7931 0 30.7453C0 31.0048 0.031875 31.2565 0.0375 31.514C0.024375 31.5774 0 31.637 0 31.7061C0 31.8214 0.028125 31.9271 0.06375 32.029ZM46.7269 43.7007C44.1791 42.6168 41.5314 41.7986 38.8237 41.2583C39.12 38.4663 39.2944 35.5666 39.3488 32.6688H48.6862C48.5156 36.6158 47.8312 40.3417 46.7269 43.7007ZM50.5594 32.6669H58.0294C57.6988 37.8987 55.9715 42.9368 53.0363 47.2306C51.5781 46.179 50.0372 45.2535 48.4294 44.4635C49.6387 40.8721 50.3831 36.8867 50.5594 32.6669ZM23.2294 42.8244C25.469 42.4623 27.7327 42.2786 30 42.2748C32.295 42.2748 34.5619 42.4708 36.7688 42.8244C35.4675 53.0761 32.625 59.5691 30 59.5691C27.375 59.5691 24.5325 53.0761 23.2294 42.8244ZM26.0775 58.9234C20.9194 57.2286 16.5562 52.2536 13.9237 45.5031C16.335 44.4695 18.8413 43.6861 21.405 43.1645C22.2656 49.8824 23.8387 55.7355 26.0775 58.9234ZM23.0137 20.5782C25.3251 20.9472 27.6607 21.1341 30 21.1374C32.3393 21.1341 34.6749 20.9472 36.9863 20.5782C37.3088 23.6912 37.5 27.0886 37.5 30.7453H22.5C22.5 27.0886 22.6912 23.6912 23.0137 20.5782ZM37.4719 32.6669C37.4271 35.4214 37.2644 38.1726 36.9844 40.9124C34.6736 40.5434 32.3386 40.3564 30 40.3533C27.6607 40.3565 25.3251 40.5434 23.0137 40.9124C22.7328 38.1726 22.5702 35.4215 22.5262 32.6669H37.4719ZM38.5969 43.1645C41.2294 43.7064 43.74 44.4943 46.0781 45.5031C43.4456 52.2536 39.0825 57.2286 33.9244 58.9234C36.1613 55.7355 37.7344 49.8824 38.5969 43.1645ZM39.375 30.7453C39.375 27.2173 39.1837 23.6432 38.8237 20.2343C41.5987 19.6732 44.2537 18.8507 46.7269 17.7919C48.0094 21.6908 48.75 26.0836 48.75 30.7453H39.375ZM38.5969 18.3261C37.7344 11.6083 36.1631 5.75322 33.9225 2.56724C39.0806 4.26207 43.4437 9.23705 46.0762 15.9876C43.6659 17.022 41.1602 17.8055 38.5969 18.3261ZM36.7706 18.6663C34.5619 19.0198 32.295 19.2158 30 19.2158C27.705 19.2158 25.4381 19.0198 23.2294 18.6663C24.5325 8.41462 27.375 1.92158 30 1.92158C32.625 1.92158 35.4675 8.41462 36.7706 18.6663ZM21.4031 18.3261C18.8395 17.8043 16.3333 17.0209 13.9219 15.9876C16.5544 9.23705 20.9175 4.26207 26.0756 2.56724C23.8388 5.75514 22.2656 11.6083 21.4031 18.3261ZM21.1763 20.2343C20.81 23.7254 20.626 27.2341 20.625 30.7453H11.25C11.25 26.0836 11.9906 21.6908 13.2731 17.79C15.7463 18.8507 18.4013 19.6713 21.1763 20.2343ZM20.6512 32.6669C20.7056 35.5647 20.88 38.4643 21.1763 41.2583C18.4013 41.8194 15.7463 42.6419 13.2731 43.7007C12.1687 40.3417 11.4844 36.6158 11.3137 32.6669H20.6512ZM11.5688 44.4635C9.96194 45.2542 8.42168 46.1797 6.96375 47.2306C4.0282 42.9369 2.30089 37.8988 1.97062 32.6669H9.44062C9.61687 36.8867 10.3612 40.8721 11.5688 44.4635ZM8.08688 48.7698C9.39912 47.8227 10.7829 46.9841 12.225 46.2621C14.1075 51.0373 16.8169 55.0015 20.0737 57.6821C15.3752 55.858 11.2371 52.7812 8.08688 48.7698ZM39.9263 57.6802C43.185 55.0015 45.8925 51.0353 47.775 46.2602C49.2563 46.9981 50.6288 47.8474 51.9131 48.7679C48.764 52.7805 44.6256 55.8575 39.9263 57.6802ZM50.625 30.7453C50.625 25.8126 49.8225 21.1624 48.4312 17.0272C50.0812 16.2162 51.615 15.2843 53.0381 14.2601C56.3498 19.0872 58.1263 24.8445 58.125 30.7453H50.625ZM51.915 12.7209C50.6306 13.6413 49.2581 14.4907 47.7769 15.2286C45.8944 10.4534 43.185 6.48727 39.9281 3.80858C44.6262 5.63371 48.7641 8.71025 51.915 12.7209ZM20.0737 3.8105C16.815 6.48919 14.1075 10.4553 12.225 15.2305C10.783 14.5075 9.39926 13.6683 8.08688 12.7209C11.2367 8.70946 15.375 5.63327 20.0737 3.8105ZM6.96375 14.2601C8.42143 15.3114 9.96171 16.2369 11.5688 17.0272C10.1023 21.4441 9.36103 26.0798 9.375 30.7453H1.875C1.875 24.6155 3.76688 18.9372 6.96375 14.2601Z" fill="white"/>
</svg>
