
<svg width="96" height="96" viewBox="0 0 96 96" fill="none" xmlns="http://www.w3.org/2000/svg">
<g clip-path="url(#clip0_2488_489)">
<path fill-rule="evenodd" clip-rule="evenodd" d="M31.5211 57.5343L6.80067 71.8122L3.29448 64.2948C0.657595 54.452 1.31441 58.1656 0.425781 48.0167C1.54944 36.615 0.721988 40.7667 4.04788 29.803C9.44722 19.6992 7.09366 23.2228 14.3604 14.3655C23.2144 7.09612 19.6953 9.45054 29.7954 4.04921C40.755 0.722097 36.6017 1.54985 48.0024 0.425781V28.9817L42.1201 29.9125L36.8142 32.618L32.6029 36.8276L29.9016 42.1355L28.9711 48.0167L29.6183 52.9446L31.5211 57.5343Z" fill="#8C9FAF"/>
<path fill-rule="evenodd" clip-rule="evenodd" d="M89.1979 71.8115L83.9531 79.1807C75.9136 86.8495 79.1429 84.3083 69.7994 90.3151C59.4869 94.4442 63.4278 93.288 52.5229 95.3911C41.4151 95.3911 45.5041 95.7809 34.5992 93.6777C24.2867 89.5486 27.9378 91.4295 18.5944 85.4227C10.5549 77.7539 13.2466 80.8588 6.80078 71.8082L31.5212 57.5303L35.0564 61.9654L39.7442 65.1605L45.166 66.8321H50.8391L56.2608 65.1605L60.9487 61.9654L64.487 57.5303L89.1979 71.8115Z" fill="#8C9FAF"/>
<path fill-rule="evenodd" clip-rule="evenodd" d="M47.9993 0.425781L57.2816 1.3405C68.2412 4.66761 64.3293 3.04432 74.4326 8.44565C83.2834 15.7118 80.2923 12.7197 87.5591 21.577C92.9584 31.6807 91.3389 27.7674 94.6616 38.7343C95.7852 50.1361 95.7434 46.1229 94.8515 56.2846C92.2147 66.1242 93.5057 62.5846 89.2011 71.8154L64.4807 57.5375L66.3803 52.9446L67.0274 48.0167L66.0969 42.1355L63.3924 36.8276L59.1811 32.618L53.8752 29.9125L47.9961 28.9817V0.425781" fill="white"/>
<path d="M47.9984 0C21.533 0 0 21.5409 0 48.0161C0 56.4321 2.22477 64.7354 6.43284 72.0242C15.0969 87.0364 30.6381 96 48.008 96C65.3651 96 80.9031 87.0364 89.5672 72.0242C93.7752 64.7354 96 56.4321 96 48.0161C96 21.5409 74.467 0 47.9984 0ZM64.1127 57.3211C60.7997 63.0606 54.6244 66.6261 48.0016 66.6261C41.3756 66.6261 35.2003 63.0606 31.8873 57.3211C30.2582 54.4964 29.3953 51.2788 29.3953 48.0161C29.3953 37.7545 37.7406 29.4029 48.0016 29.4029C58.2594 29.4029 66.6047 37.7513 66.6047 48.0161C66.6047 51.2788 65.7418 54.4964 64.1127 57.3211ZM47.5734 0.859961V28.5655C37.042 28.7942 28.5421 37.4292 28.5421 48.0161C28.5421 51.2852 29.3792 54.5093 30.9472 57.3726L6.95764 71.2286C2.96529 64.1589 0.849985 56.1423 0.849985 48.0161C0.849985 22.1496 21.7712 1.09186 47.5734 0.859961ZM48.008 95.1497C31.0888 95.1497 15.9372 86.4889 7.38585 71.963L31.3754 58.107C34.888 63.8948 41.2114 67.4763 47.9984 67.4763C54.7854 67.4763 61.1088 63.8916 64.6214 58.107L88.6141 71.963C80.0628 86.4889 64.9176 95.1529 48.008 95.1497ZM89.0391 71.2286L65.0496 57.3726C66.6208 54.5093 67.4547 51.2885 67.4547 48.0161C67.4547 37.426 58.958 28.7942 48.4266 28.5655V0.859961C74.2288 1.08864 95.15 22.1496 95.15 48.0161C95.15 56.1423 93.0347 64.1589 89.0391 71.2286Z" fill="#8C9FAF"/>
</g>
<defs>
<clipPath id="clip0_2488_489">
<rect width="96" height="96" fill="white"/>
</clipPath>
</defs>
</svg>
