<svg
  width="50"
  height="50"
  viewBox="0 0 50 50"
  fill="none"
  xmlns="http://www.w3.org/2000/svg"
>
  <path
    d="M0.053125 26.0437C0.60625 39.3422 11.5672 50 25 50C38.4328 50 49.3937 39.3422 49.9469 26.0437C49.9798 25.96 49.9978 25.8712 50 25.7812C50 25.725 49.9797 25.6766 49.9688 25.625C49.9734 25.4156 50 25.2109 50 25C50 11.2156 38.7844 0 25 0C11.2156 0 0 11.2156 0 25C0 25.2109 0.0265625 25.4156 0.03125 25.625C0.0203125 25.6766 0 25.725 0 25.7812C0 25.875 0.0234375 25.9609 0.053125 26.0437ZM38.9391 35.5344C36.816 34.6531 34.6095 33.9877 32.3531 33.5484C32.6 31.2781 32.7453 28.9203 32.7906 26.5641H40.5719C40.4297 29.7734 39.8594 32.8031 38.9391 35.5344ZM42.1328 26.5625H48.3578C48.0824 30.8166 46.6429 34.9132 44.1969 38.4047C42.9817 37.5496 41.6976 36.797 40.3578 36.1547C41.3656 33.2344 41.9859 29.9937 42.1328 26.5625ZM19.3578 34.8219C21.2242 34.5275 23.1106 34.378 25 34.375C26.9125 34.375 28.8016 34.5344 30.6406 34.8219C29.5562 43.1578 27.1875 48.4375 25 48.4375C22.8125 48.4375 20.4437 43.1578 19.3578 34.8219ZM21.7312 47.9125C17.4328 46.5344 13.7969 42.4891 11.6031 37C13.6125 36.1596 15.7011 35.5225 17.8375 35.0984C18.5547 40.5609 19.8656 45.3203 21.7312 47.9125ZM19.1781 16.7328C21.1043 17.0328 23.0506 17.1848 25 17.1875C26.9494 17.1848 28.8957 17.0328 30.8219 16.7328C31.0906 19.2641 31.25 22.0266 31.25 25H18.75C18.75 22.0266 18.9094 19.2641 19.1781 16.7328ZM31.2266 26.5625C31.1892 28.8023 31.0537 31.0393 30.8203 33.2672C28.8947 32.9671 26.9489 32.8151 25 32.8125C23.0506 32.8151 21.1043 32.9671 19.1781 33.2672C18.944 31.0394 18.8085 28.8023 18.7719 26.5625H31.2266ZM32.1641 35.0984C34.3578 35.5391 36.45 36.1797 38.3984 37C36.2047 42.4891 32.5687 46.5344 28.2703 47.9125C30.1344 45.3203 31.4453 40.5609 32.1641 35.0984ZM32.8125 25C32.8125 22.1313 32.6531 19.225 32.3531 16.4531C34.6656 15.9969 36.8781 15.3281 38.9391 14.4672C40.0078 17.6375 40.625 21.2094 40.625 25H32.8125ZM32.1641 14.9016C31.4453 9.43906 30.1359 4.67812 28.2687 2.0875C32.5672 3.46563 36.2031 7.51094 38.3969 13C36.3883 13.8411 34.3001 14.4782 32.1641 14.9016ZM30.6422 15.1781C28.8016 15.4656 26.9125 15.625 25 15.625C23.0875 15.625 21.1984 15.4656 19.3578 15.1781C20.4437 6.84219 22.8125 1.5625 25 1.5625C27.1875 1.5625 29.5562 6.84219 30.6422 15.1781ZM17.8359 14.9016C15.6996 14.4773 13.6111 13.8402 11.6016 13C13.7953 7.51094 17.4312 3.46563 21.7297 2.0875C19.8656 4.67969 18.5547 9.43906 17.8359 14.9016ZM17.6469 16.4531C17.3417 19.2919 17.1883 22.1449 17.1875 25H9.375C9.375 21.2094 9.99219 17.6375 11.0609 14.4656C13.1219 15.3281 15.3344 15.9953 17.6469 16.4531ZM17.2094 26.5625C17.2547 28.9188 17.4 31.2766 17.6469 33.5484C15.3344 34.0047 13.1219 34.6734 11.0609 35.5344C10.1406 32.8031 9.57031 29.7734 9.42812 26.5625H17.2094ZM9.64062 36.1547C8.30161 36.7976 7.01807 37.5502 5.80312 38.4047C3.35683 34.9133 1.91741 30.8167 1.64219 26.5625H7.86719C8.01406 29.9937 8.63437 33.2344 9.64062 36.1547ZM6.73906 39.6562C7.8326 38.8861 8.98572 38.2043 10.1875 37.6172C11.7562 41.5 14.0141 44.7234 16.7281 46.9031C12.8127 45.4199 9.36421 42.9181 6.73906 39.6562ZM33.2719 46.9016C35.9875 44.7234 38.2438 41.4984 39.8125 37.6156C41.0469 38.2156 42.1906 38.9062 43.2609 39.6547C40.6367 42.9175 37.188 45.4194 33.2719 46.9016ZM42.1875 25C42.1875 20.9891 41.5187 17.2078 40.3594 13.8453C41.7344 13.1859 43.0125 12.4281 44.1984 11.5953C46.9581 15.5204 48.4386 20.2019 48.4375 25H42.1875ZM43.2625 10.3437C42.1922 11.0922 41.0484 11.7828 39.8141 12.3828C38.2453 8.5 35.9875 5.275 33.2734 3.09688C37.1885 4.58094 40.6367 7.08258 43.2625 10.3437ZM16.7281 3.09844C14.0125 5.27656 11.7562 8.50156 10.1875 12.3844C8.98582 11.7965 7.83272 11.1142 6.73906 10.3437C9.36388 7.08194 12.8125 4.58059 16.7281 3.09844ZM5.80312 11.5953C7.01786 12.4502 8.30143 13.2027 9.64062 13.8453C8.41862 17.4369 7.80086 21.2063 7.8125 25H1.5625C1.5625 20.0156 3.13906 15.3984 5.80312 11.5953Z"
    fill="#566064"
  />
</svg>
